<svg xmlns="http://www.w3.org/2000/svg" viewBox="0 0 111 135" id="icon-gd-hiw-order"> <path fill="#13246B" fill-rule="evenodd" d="M27.9939,101.59875 L28.0104,101.5872 L50.3646,85.4931 L50.3646,87.8493 L30.2181,102.3495 L30.9342,102.597 L89.2584,122.8194 L134.9337,86.9979 L114.4968,79.794 L114.4968,77.3157 L135.3396,84.5757 L135.6696,34.485 L135.4749,34.4289 L130.7361,37.7289 L79.9458,23.1396 L79.9458,37.8873 L78.0351,37.8873 L78.0351,22.5918 L70.8708,20.5359 L77.8767,16.0776 L78.0351,16.1238 L78.0351,15.9225 L137.5671,33.0297 L137.5671,86.0079 L137.5671,111.4179 L89.2815,149.5461 L88.6677,149.3151 L27.9246,126.1689 L27.9246,101.5575 L28.0104,101.5872 L27.9939,101.59875 Z M135.6564,110.4939 L135.6564,88.8327 L89.6181,124.9644 L29.8353,104.2404 L29.8353,124.8423 L89.3409,147.0579 L135.6564,110.4939 Z M72.6,53.7075 L72.6,57.9678 L70.0029,57.9678 L70.0029,62.37 L64.8912,62.37 L64.8912,57.9678 L54.5424,57.9678 L54.5424,54.3807 L62.7759,40.986 L70.0161,40.986 L70.0161,53.7075 L72.6,53.7075 Z M64.878,45.474 L59.8455,53.7075 L64.878,53.7075 L64.878,45.474 Z M83.6913,62.37 L78.1473,62.37 L78.1473,45.6984 L73.6296,45.6984 L73.6296,40.986 L88.3047,40.986 L88.3047,45.6984 L83.6847,45.6984 L83.6913,62.37 Z M104.3196,49.2525 L104.3196,41.0025 L109.8636,41.0025 L109.8636,62.37 L104.3196,62.37 L104.3196,53.5788 L96.2775,53.5788 L96.2775,62.37 L90.75,62.37 L90.75,40.986 L96.294,40.986 L96.294,49.236 L104.3196,49.2525 Z M65.5314,68.574 C66.5512244,69.7404681 67.110859,71.2386935 67.1055758,72.7881 C67.1055758,76.461 64.2477,79.2264 60.4329,79.2264 C56.6181,79.2264 53.757,76.4775 53.757,72.6792 C53.7790036,70.7444391 54.6770846,68.9240046 56.199,67.7292 C57.4192717,66.8148772 58.9082499,66.3309304 60.4329,66.3531 C62.5284,66.3663 64.2477,67.1088 65.5314,68.574 Z M57.0304849,72.7881 C57.0225812,74.1659754 57.8464215,75.4126414 59.117118,75.9454969 C60.3878146,76.4783526 61.8544402,76.192174 62.8316007,75.2207 C63.8087614,74.2492259 64.1034954,72.7842955 63.5780652,71.5105108 C63.0526351,70.2367258 61.8107987,69.4055868 60.4329,69.4055868 C58.5600747,69.4019459 57.0378767,70.9152852 57.0304849,72.7881 Z M79.1076,78.7941 L75.2004,78.7941 L72.2304,74.1741 L72.2304,78.7941 L69.102,78.7941 L69.102,66.7293 L73.953,66.7293 C75.3291,66.7293 76.2135,67.0593 76.923,67.7985 C77.5883184,68.5228517 77.9559833,69.4714746 77.9526,70.455 C77.983838,71.4905309 77.5621038,72.4882333 76.7976,73.1874 C76.3663894,73.5294586 75.8554547,73.7565407 75.3126,73.8474 L79.1076,78.7941 Z M72.7947,72.138 C73.2648747,72.1714457 73.7336432,72.0559855 74.1345,71.808 C74.5093214,71.5339606 74.7308803,71.0975154 74.7308803,70.6332 C74.7308803,70.1688846 74.5093214,69.7324394 74.1345,69.4584 C73.7336432,69.2104145 73.2648747,69.0949543 72.7947,69.1284 L72.2172,69.1284 L72.2172,72.1314 L72.7947,72.138 Z M80.4243,66.7293 L85.0443,66.7293 C88.2288,66.7293 90.9843,69.5145 90.9843,72.7518 C90.9843,75.9891 88.2387,78.7941 85.0443,78.7941 L80.4243,78.7941 L80.4243,66.7293 Z M84.2754,76.1343 C85.4502,76.1343 86.2125,75.8274 86.8461,75.1212 C88.0099013,73.7622124 88.0099013,71.7578876 86.8461,70.3989 C86.2125,69.696 85.4502,69.3891 84.2754,69.3891 L83.5527,69.3891 L83.5527,76.1343 L84.2754,76.1343 Z M96.1191,69.3891 L96.1191,71.3955 L99.66,71.3955 L99.66,74.052 L96.1191,74.052 L96.1191,76.1343 L99.8415,76.1343 L99.8415,78.7941 L92.9907,78.7941 L92.9907,66.7293 L99.8415,66.7293 L99.8415,69.3891 L96.1191,69.3891 Z M111.8469,78.7941 L107.943,78.7941 L104.9565,74.1741 L104.9565,78.7941 L101.8314,78.7941 L101.8314,66.7293 L106.6956,66.7293 C108.0684,66.7293 108.9561,67.0593 109.6656,67.7985 C110.333247,68.5216453 110.702292,69.4707859 110.6985,70.455 C110.728455,71.4909671 110.305555,72.4885751 109.5402,73.1874 C109.10986,73.5288296 108.600154,73.7558698 108.0585,73.8474 L111.8469,78.7941 Z M105.5373,72.138 C106.007475,72.1714457 106.476243,72.0559855 106.8771,71.808 C107.250643,71.5331211 107.471201,71.0969812 107.471201,70.6332 C107.471201,70.1694188 107.250643,69.7332789 106.8771,69.4584 C106.476243,69.2104145 106.007475,69.0949543 105.5373,69.1284 L104.9565,69.1284 L104.9565,72.1314 L105.5373,72.138 Z M59.5353,87.1563 L59.5353,90.3276 L64.9638,90.3276 L64.9638,94.5285 L59.5353,94.5285 L59.5353,102.0129 L54.5853,102.0129 L54.5853,82.9554 L65.505,82.9554 L65.505,87.1563 L59.5353,87.1563 Z M84.2688,102.0129 L78.0978,102.0129 L73.3854,94.71 L73.3854,102.0228 L68.4354,102.0228 L68.4354,82.9554 L76.1211,82.9554 C78.2925,82.9554 79.6917,83.4702 80.8071,84.6417 C81.8599708,85.7865993 82.4411132,87.2871964 82.434,88.8426 C82.434,90.585 81.7476,92.2152 80.6058,93.1557 C79.9282844,93.7034295 79.1215623,94.0681587 78.2628,94.215 L84.2688,102.0129 Z M74.2995,91.4991 C75.2433,91.4991 75.9495,91.3275 76.4115,90.9843 C77.0009821,90.5487637 77.3487992,89.8593263 77.3487992,89.1264 C77.3487992,88.3934737 77.0009821,87.7040363 76.4115,87.2685 C75.9561,86.9385 75.2433,86.757 74.2995,86.757 L73.3854,86.757 L73.3854,91.4991 L74.2995,91.4991 Z M90.1461,87.1563 L90.1461,90.3276 L95.7165,90.3276 L95.7165,94.5285 L90.1461,94.5285 L90.1461,97.812 L96.03,97.812 L96.03,102.0129 L85.2027,102.0129 L85.2027,82.9554 L96.03,82.9554 L96.03,87.1563 L90.1461,87.1563 Z M104.1117,87.1563 L104.1117,90.3276 L109.6821,90.3276 L109.6821,94.5285 L104.1117,94.5285 L104.1117,97.812 L109.9956,97.812 L109.9956,102.0129 L99.1683,102.0129 L99.1683,82.9554 L109.9956,82.9554 L109.9956,87.1563 L104.1117,87.1563 Z" transform="translate(-27 -15)"></path> </svg>