<svg viewBox="0 0 125 116" id="icon-gd-hiw-calendar" xmlns="http://www.w3.org/2000/svg">  <g id="gd-hiw-calendar-Page-1" stroke="none" stroke-width="1" fill="none" fill-rule="evenodd"> <g id="gd-hiw-calendar-Home-Jost-Copy-2" transform="translate(-778.000000, -994.000000)"> <g id="gd-hiw-calendar-Group-8" transform="translate(681.000000, 995.000000)"> <g id="gd-hiw-calendar-Group-7" transform="translate(97.000000, 0.000000)"> <rect id="gd-hiw-calendar-Rectangle" stroke="#13246B" stroke-width="1.5" x="0.75" y="10.957976" width="123.5" height="102.470126" rx="4"></rect> <path d="M121,10.3641509 L4,10.3641509 C3.06111593,10.3641509 2.21111593,10.7447089 1.59583694,11.3599879 C0.980557963,11.9752669 0.6,12.8252669 0.6,13.7641509 L0.6,31.848542 L124.4,31.848542 L124.4,13.7641509 C124.4,12.8252669 124.019442,11.9752669 123.404163,11.3599879 C122.788884,10.7447089 121.938884,10.3641509 121,10.3641509 Z" id="gd-hiw-calendar-Rectangle" stroke="#13246B" stroke-width="1.2" fill="#13246B"></path> <g id="gd-hiw-calendar-Group-8-Copy" transform="translate(32.608696, 0.000000)" fill="#FFFFFF" stroke="#13246B" stroke-width="1.5"> <rect id="gd-hiw-calendar-Rectangle" x="0.296442688" y="0" width="7.60869565" height="21.6981132" rx="3.80434783"></rect> <rect id="gd-hiw-calendar-Rectangle" x="52.173913" y="0" width="7.60869565" height="21.6981132" rx="3.80434783"></rect> </g> <g id="gd-hiw-calendar-Group-2" transform="translate(19.000000, 52.000000)" fill="#13246B" fill-rule="nonzero"> <path d="M5.44,30.416 C5.99466667,30.416 6.53333333,30.3386667 7.056,30.184 C7.57866667,30.0293333 8.04266667,29.8026667 8.448,29.504 C8.85333333,29.2053333 9.17866667,28.824 9.424,28.36 C9.66933333,27.896 9.792,27.36 9.792,26.752 C9.792,26.3146667 9.72266667,25.9146667 9.584,25.552 C9.44533333,25.1893333 9.248,24.864 8.992,24.576 C8.736,24.288 8.432,24.04 8.08,23.832 C7.728,23.624 7.344,23.4506667 6.928,23.312 C6.56533333,23.184 6.23733333,23.064 5.944,22.952 C5.65066667,22.84 5.39733333,22.728 5.184,22.616 C4.97066667,22.504 4.80266667,22.3786667 4.68,22.24 C4.55733333,22.1013333 4.496,21.9466667 4.496,21.776 C4.496,21.616 4.53866667,21.4853333 4.624,21.384 C4.70933333,21.2826667 4.824,21.2053333 4.968,21.152 C5.112,21.0986667 5.29066667,21.072 5.504,21.072 C5.74933333,21.072 5.98666667,21.1173333 6.216,21.208 C6.44533333,21.2986667 6.664,21.432 6.872,21.608 C7.08,21.784 7.264,22.0106667 7.424,22.288 L9.76,20.976 C9.55733333,20.592 9.26933333,20.208 8.896,19.824 C8.52266667,19.44 8.05333333,19.1253333 7.488,18.88 C6.92266667,18.6346667 6.24,18.512 5.44,18.512 C4.68266667,18.512 3.992,18.6373333 3.368,18.888 C2.744,19.1386667 2.24533333,19.512 1.872,20.008 C1.49866667,20.504 1.312,21.0986667 1.312,21.792 C1.312,22.3573333 1.41866667,22.84 1.632,23.24 C1.84533333,23.64 2.10666667,23.9786667 2.416,24.256 C2.72533333,24.5333333 3.05333333,24.7573333 3.4,24.928 C3.74666667,25.0986667 4.05333333,25.2426667 4.32,25.36 C4.896,25.584 5.344,25.768 5.664,25.912 C5.984,26.056 6.20266667,26.2026667 6.32,26.352 C6.43733333,26.5013333 6.496,26.6773333 6.496,26.88 C6.496,27.0826667 6.44533333,27.2506667 6.344,27.384 C6.24266667,27.5173333 6.104,27.6186667 5.928,27.688 C5.752,27.7573333 5.54666667,27.792 5.312,27.792 C4.96,27.792 4.62133333,27.7173333 4.296,27.568 C3.97066667,27.4186667 3.66666667,27.2026667 3.384,26.92 C3.10133333,26.6373333 2.85333333,26.2986667 2.64,25.904 L0.512,27.44 C0.757333333,27.9946667 1.12266667,28.496 1.608,28.944 C2.09333333,29.392 2.664,29.7493333 3.32,30.016 C3.976,30.2826667 4.68266667,30.416 5.44,30.416 Z M17.2,30.288 C18.0213333,30.288 18.696,30.1866667 19.224,29.984 C19.752,29.7813333 20.24,29.5146667 20.688,29.184 L20.688,25.888 C20.4533333,26.1333333 20.184,26.368 19.88,26.592 C19.576,26.816 19.224,26.9973333 18.824,27.136 C18.424,27.2746667 17.9573333,27.344 17.424,27.344 C16.9973333,27.344 16.6,27.28 16.232,27.152 C15.864,27.024 15.5333333,26.8346667 15.24,26.584 C14.9466667,26.3333333 14.7226667,26.024 14.568,25.656 C14.4133333,25.288 14.336,24.8693333 14.336,24.4 C14.336,23.92 14.4133333,23.4986667 14.568,23.136 C14.7226667,22.7733333 14.9466667,22.4666667 15.24,22.216 C15.5333333,21.9653333 15.864,21.776 16.232,21.648 C16.6,21.52 16.9973333,21.456 17.424,21.456 C17.9573333,21.456 18.424,21.5253333 18.824,21.664 C19.224,21.8026667 19.576,21.9813333 19.88,22.2 C20.184,22.4186667 20.4533333,22.656 20.688,22.912 L20.688,19.6 C20.24,19.28 19.752,19.0186667 19.224,18.816 C18.696,18.6133333 18.0213333,18.512 17.2,18.512 C16.272,18.512 15.424,18.6506667 14.656,18.928 C13.888,19.2053333 13.2213333,19.6053333 12.656,20.128 C12.0906667,20.6506667 11.656,21.272 11.352,21.992 C11.048,22.712 10.896,23.5146667 10.896,24.4 C10.896,25.2853333 11.048,26.088 11.352,26.808 C11.656,27.528 12.0906667,28.1493333 12.656,28.672 C13.2213333,29.1946667 13.888,29.5946667 14.656,29.872 C15.424,30.1493333 16.272,30.288 17.2,30.288 Z M25.936,30 L25.936,25.536 L30.352,25.536 L30.352,30 L33.456,30 L33.456,18.8 L30.352,18.8 L30.352,22.752 L25.936,22.752 L25.936,18.8 L22.832,18.8 L22.832,30 L25.936,30 Z M35.76,18.8 L35.76,30 L38.736,30 L43.536,30 L43.536,27.472 L38.736,27.472 L38.736,25.408 L43.216,25.408 L43.216,22.96 L38.736,22.96 L38.736,21.328 L43.536,21.328 L43.536,18.8 L38.736,18.8 L37.888,18.8 L35.76,18.8 Z M45.664,18.8 L45.664,30 L48.896,30 L49.856,30 C50.8053333,30 51.6586667,29.872 52.416,29.616 C53.1733333,29.36 53.8186667,28.992 54.352,28.512 C54.8853333,28.032 55.2933333,27.4453333 55.576,26.752 C55.8586667,26.0586667 56,25.2746667 56,24.4 C56,23.5253333 55.8586667,22.7413333 55.576,22.048 C55.2933333,21.3546667 54.8853333,20.768 54.352,20.288 C53.8186667,19.808 53.1733333,19.44 52.416,19.184 C51.6586667,18.928 50.8053333,18.8 49.856,18.8 L47.792,18.8 L45.664,18.8 Z M48.896,21.52 L49.728,21.52 C50.1013333,21.52 50.4666667,21.5626667 50.824,21.648 C51.1813333,21.7333333 51.5066667,21.88 51.8,22.088 C52.0933333,22.296 52.3226667,22.5893333 52.488,22.968 C52.6533333,23.3466667 52.736,23.824 52.736,24.4 C52.736,24.976 52.6533333,25.4533333 52.488,25.832 C52.3226667,26.2106667 52.0933333,26.504 51.8,26.712 C51.5066667,26.92 51.1813333,27.0666667 50.824,27.152 C50.4666667,27.2373333 50.1013333,27.28 49.728,27.28 L48.896,27.28 L48.896,21.52 Z M62.304,30.56 C62.944,30.56 63.5466667,30.4773333 64.112,30.312 C64.6773333,30.1466667 65.1786667,29.8986667 65.616,29.568 C66.0533333,29.2373333 66.3946667,28.8 66.64,28.256 C66.8853333,27.712 67.008,27.0666667 67.008,26.32 L67.008,18.8 L63.872,18.8 L63.872,26.064 C63.872,26.4053333 63.8133333,26.704 63.696,26.96 C63.5786667,27.216 63.408,27.416 63.184,27.56 C62.96,27.704 62.6666667,27.776 62.304,27.776 C61.9306667,27.776 61.6266667,27.704 61.392,27.56 C61.1573333,27.416 60.9813333,27.216 60.864,26.96 C60.7466667,26.704 60.688,26.4053333 60.688,26.064 L60.688,18.8 L57.568,18.8 L57.568,26.32 C57.568,27.0666667 57.6906667,27.712 57.936,28.256 C58.1813333,28.8 58.52,29.2373333 58.952,29.568 C59.384,29.8986667 59.8853333,30.1466667 60.456,30.312 C61.0266667,30.4773333 61.6426667,30.56 62.304,30.56 Z M76.88,30 L76.88,27.344 L72.336,27.344 L72.336,18.8 L69.232,18.8 L69.232,30 L76.88,30 Z M78.048,18.8 L78.048,30 L81.024,30 L85.824,30 L85.824,27.472 L81.024,27.472 L81.024,25.408 L85.504,25.408 L85.504,22.96 L81.024,22.96 L81.024,21.328 L85.824,21.328 L85.824,18.8 L81.024,18.8 L80.176,18.8 L78.048,18.8 Z" id="gd-hiw-calendar-SCHEDULE"></path> <path d="M4.08,13.312 C4.496,13.312 4.9,13.254 5.292,13.138 C5.684,13.022 6.032,12.852 6.336,12.628 C6.64,12.404 6.884,12.118 7.068,11.77 C7.252,11.422 7.344,11.02 7.344,10.564 C7.344,10.236 7.292,9.936 7.188,9.664 C7.084,9.392 6.936,9.148 6.744,8.932 C6.552,8.716 6.324,8.53 6.06,8.374 C5.796,8.218 5.508,8.088 5.196,7.984 C4.924,7.888 4.678,7.798 4.458,7.714 C4.238,7.63 4.048,7.546 3.888,7.462 C3.728,7.378 3.602,7.284 3.51,7.18 C3.418,7.076 3.372,6.96 3.372,6.832 C3.372,6.712 3.404,6.614 3.468,6.538 C3.532,6.462 3.618,6.404 3.726,6.364 C3.834,6.324 3.968,6.304 4.128,6.304 C4.312,6.304 4.49,6.338 4.662,6.406 C4.834,6.474 4.998,6.574 5.154,6.706 C5.31,6.838 5.448,7.008 5.568,7.216 L7.32,6.232 C7.168,5.944 6.952,5.656 6.672,5.368 C6.392,5.08 6.04,4.844 5.616,4.66 C5.192,4.476 4.68,4.384 4.08,4.384 C3.512,4.384 2.994,4.478 2.526,4.666 C2.058,4.854 1.684,5.134 1.404,5.506 C1.124,5.878 0.984,6.324 0.984,6.844 C0.984,7.268 1.064,7.63 1.224,7.93 C1.384,8.23 1.58,8.484 1.812,8.692 C2.044,8.9 2.29,9.068 2.55,9.196 C2.81,9.324 3.04,9.432 3.24,9.52 C3.672,9.688 4.008,9.826 4.248,9.934 C4.488,10.042 4.652,10.152 4.74,10.264 C4.828,10.376 4.872,10.508 4.872,10.66 C4.872,10.812 4.834,10.938 4.758,11.038 C4.682,11.138 4.578,11.214 4.446,11.266 C4.314,11.318 4.16,11.344 3.984,11.344 C3.72,11.344 3.466,11.288 3.222,11.176 C2.978,11.064 2.75,10.902 2.538,10.69 C2.326,10.478 2.14,10.224 1.98,9.928 L0.384,11.08 C0.568,11.496 0.842,11.872 1.206,12.208 C1.57,12.544 1.998,12.812 2.49,13.012 C2.982,13.212 3.512,13.312 4.08,13.312 Z M8.752,4.6 L8.752,13 L10.984,13 L14.584,13 L14.584,11.104 L10.984,11.104 L10.984,9.557 L14.344,9.556 L14.344,7.72 L10.984,7.72 L10.984,6.496 L14.584,6.496 L14.584,4.6 L10.984,4.6 L10.348,4.6 L8.752,4.6 Z M20.144,13 L20.144,6.688 L22.484,6.688 L22.484,4.6 L15.44,4.6 L15.44,6.688 L17.792,6.688 L17.792,13 L20.144,13 Z M27.16,4.6 L27.16,13 L29.584,13 L30.304,13 C31.016,13 31.656,12.904 32.224,12.712 C32.792,12.52 33.276,12.244 33.676,11.884 C34.076,11.524 34.382,11.084 34.594,10.564 C34.806,10.044 34.912,9.456 34.912,8.8 C34.912,8.144 34.806,7.556 34.594,7.036 C34.382,6.516 34.076,6.076 33.676,5.716 C33.276,5.356 32.792,5.08 32.224,4.888 C31.656,4.696 31.016,4.6 30.304,4.6 L28.756,4.6 L27.16,4.6 Z M29.584,6.64 L30.208,6.64 C30.488,6.64 30.762,6.672 31.03,6.736 C31.298,6.8 31.542,6.91 31.762,7.066 C31.982,7.222 32.154,7.442 32.278,7.726 C32.402,8.01 32.464,8.368 32.464,8.8 C32.464,9.232 32.402,9.59 32.278,9.874 C32.154,10.158 31.982,10.378 31.762,10.534 C31.542,10.69 31.298,10.8 31.03,10.864 C30.762,10.928 30.488,10.96 30.208,10.96 L29.584,10.96 L29.584,6.64 Z M36.248,4.6 L36.248,13 L38.48,13 L42.08,13 L42.08,11.104 L38.48,11.104 L38.48,9.557 L41.84,9.556 L41.84,7.72 L38.48,7.72 L38.48,6.496 L42.08,6.496 L42.08,4.6 L38.48,4.6 L37.844,4.6 L36.248,4.6 Z M49.512,13 L49.512,11.008 L46.104,11.008 L46.104,4.6 L43.776,4.6 L43.776,13 L49.512,13 Z M52.876,13 L52.876,4.6 L50.488,4.6 L50.488,13 L52.876,13 Z M58.388,13.564 L62.972,4.6 L60.224,4.6 L58.388,9.148 L56.564,4.6 L53.804,4.6 L58.388,13.564 Z M63.9,4.6 L63.9,13 L66.131,13 L69.732,13 L69.732,11.104 L66.131,11.104 L66.131,9.557 L69.492,9.556 L69.492,7.72 L66.131,7.72 L66.131,6.496 L69.732,6.496 L69.732,4.6 L66.132,4.6 L65.496,4.6 L63.9,4.6 Z M71.428,4.6 L71.428,13 L73.756,13 L73.756,10.228 L74.257,10.228 L75.904,13 L78.628,13 L76.532,9.913 L76.636,9.868 L76.636,9.868 C77.14,9.628 77.514,9.294 77.758,8.866 C78.002,8.438 78.124,7.956 78.124,7.42 C78.124,6.86 78.002,6.37 77.758,5.95 C77.514,5.53 77.14,5.2 76.636,4.96 C76.132,4.72 75.5,4.6 74.74,4.6 L72.916,4.6 L71.428,4.6 Z M73.756,6.568 L74.548,6.568 C74.788,6.568 74.994,6.604 75.166,6.676 C75.338,6.748 75.47,6.854 75.562,6.994 C75.654,7.134 75.7,7.3 75.7,7.492 C75.7,7.708 75.654,7.884 75.562,8.02 C75.47,8.156 75.338,8.26 75.166,8.332 C74.994,8.404 74.788,8.44 74.548,8.44 L73.756,8.44 L73.756,6.568 Z M84.092,13 L84.092,9.64 L87.08,4.6 L84.368,4.6 L82.892,7.516 L81.416,4.6 L78.716,4.6 L81.704,9.652 L81.704,13 L84.092,13 Z" id="gd-hiw-calendar-SETDELIVERY"></path> </g> </g> </g> </g> </g> </svg>