<svg viewBox="0 0 88 156" id="icon-gd-hiw-razor" xmlns="http://www.w3.org/2000/svg">  <g id="gd-hiw-razor-Page-1" stroke="none" stroke-width="1" fill="none" fill-rule="evenodd"> <g id="gd-hiw-razor-Home-Jost-Copy-2" transform="translate(-396.000000, -976.000000)" fill="#13246B" fill-rule="nonzero"> <g id="gd-hiw-razor-Group" transform="translate(298.000000, 976.000000)"> <g id="gd-hiw-razor-icon-razor" transform="translate(98.000000, 0.000000)"> <path d="M87.9988822,8.66670266 C87.8591589,9.00033521 87.4623446,9.31728613 87.3337991,9.6019859 L87.3337991,20.3894383 L87.6132458,20.4239136 L87.6132458,20.4572769 C87.0979461,23.687952 87.3226212,28.4889244 85.2446556,30.0080646 L84.4465558,29.9758135 C84.4756183,31.3603885 83.8541288,33.2076007 83.3734805,34.3708662 C82.9766662,35.331728 82.794467,36.2536659 82.3339388,37.1400164 C80.9769456,39.7379018 79.3829817,41.9621188 77.2535979,43.7837525 C75.4684924,45.3106774 71.659075,46.1403104 71.6165991,49.1830392 C72.5756602,49.5922951 73.6554422,51.0969779 74.3317032,51.8799023 C75.8377054,53.6612425 76.9515158,55.7369916 77.6012296,57.9731447 C77.7621909,58.6982395 77.9253877,59.4389037 78.0874668,60.1506531 C78.1120581,60.4842857 78.1332961,60.8201425 78.1590052,61.153775 C78.4451586,62.0401255 78.4552187,64.0508176 78.2260724,65.0328094 C78.0338131,65.869115 78.1444739,66.6742816 77.9477435,67.386031 C77.6470588,68.4781215 77.7085371,69.5068219 77.3217829,70.4999348 C76.5057985,72.6062682 75.9234316,74.6670053 74.8850077,76.5208901 C73.1971496,79.5602826 70.9694006,82.3327691 68.7662428,84.8984034 C66.6659215,87.3394815 64.6773788,89.8483983 62.6418891,92.3717725 C60.7282381,94.7483483 59.0325555,97.2183413 57.8421126,100.332245 C57.1379069,102.161664 57.8387593,105.367872 57.3558754,107.449739 L57.3558754,109.179068 C57.2127987,109.62836 57.38382,110.328988 57.2876904,110.877258 C57.0764287,111.987142 57.3335196,113.410641 57.0764287,114.510516 L57.0764287,116.225387 C57.0093615,117.554357 56.9400587,118.881103 56.8685203,120.204512 L56.8685203,121.488997 C56.6226072,122.556621 57.0652508,124.009035 56.8014531,125.158955 C56.6784966,125.959673 56.6315495,126.771512 56.6617298,127.582239 L56.6617298,128.549774 C56.4538214,129.187012 56.7366215,130.169004 56.5220064,130.834045 C56.4628675,131.014535 56.4161845,131.198832 56.3822831,131.38565 C56.3643985,131.74931 56.5007685,132.397669 56.3822831,132.770226 C56.1106609,133.648791 56.5287131,135.375896 56.3107447,136.30117 C56.2436775,140.638393 56.1754925,144.975616 56.1039542,149.315064 C55.7820316,149.970095 54.9805785,150.638473 54.4686321,151.147818 C51.8977225,153.703444 49.8409948,154.855588 45.7375996,155.923212 C45.1082856,156.090028 42.3361744,155.952127 41.8421126,155.820898 C40.9478832,155.578459 40.1721392,155.609598 39.3740394,155.336019 C37.2016049,154.61744 35.2004818,153.462987 33.4944809,151.944088 C32.9076429,151.414724 31.218667,149.955638 30.9906385,149.243889 L30.7111918,138.307414 C30.6396535,136.602551 30.5703507,134.895465 30.5032835,133.187266 L30.5032835,131.663678 L30.2920218,126.542418 L30.2920218,125.018829 C30.0416376,124.240353 30.1567696,122.542164 30.1567696,121.628011 L30.1567696,120.549265 C29.903032,119.770789 30.0170462,118.0726 30.0170462,117.157334 L30.0170462,116.123074 C29.8236691,115.528095 30.160123,114.567234 29.9455079,113.905529 C29.7554841,113.315 30.091938,112.354138 29.8784407,111.692433 C29.6839458,111.100792 30.0203996,110.136593 29.8057845,109.474889 C29.4559173,108.385023 29.6917703,107.150582 29.3910857,106.082958 C29.1809417,105.070939 28.9730334,104.055584 28.7651251,103.040229 C28.5073736,102.048131 28.2521448,101.055386 27.9994411,100.062003 C27.0806204,97.666521 26.6335057,95.0552902 25.4955987,92.8666607 C21.425737,85.0085021 15.9496996,78.6850533 11.8608355,70.922536 C10.2579293,67.8798072 9.34246193,63.5881805 11.6529272,60.5421153 C12.2676764,59.7210293 13.007639,59.0005853 13.8460249,58.406867 L15.2019002,57.5772341 C14.7827302,57.1546329 14.9470449,55.7978605 14.7827302,55.0861111 C14.4898701,53.7949531 15.0230544,52.4993467 15.2689674,51.5562787 C15.4947604,50.7310942 15.2376694,47.7339618 14.9939919,47.2857821 C14.3389688,46.0691354 12.6298729,45.7410634 11.4774347,45.0015113 C9.90027592,43.965957 8.4832958,42.7071562 7.27120302,41.2648268 C5.49727539,39.1896323 4.44879139,36.5672805 3.37571608,33.7914577 C3.12113307,32.7415618 2.86627768,31.6917314 2.61114992,30.6419664 C2.58544083,30.3528182 2.56420288,30.0647821 2.53961157,29.776746 C2.33505659,29.2040102 1.83093475,28.6946645 1.56713707,28.115256 C1.18038284,27.2745019 1.0652508,26.2535863 0.800335336,25.3105183 C0.453821434,24.0760779 0.593544781,22.4245968 0.593544781,20.9154656 L0.593544781,9.57751951 C0.471706022,9.33507986 0.120720972,9.10709762 0,8.8157252 L0,4.09704887 C0.561128965,2.44223144 1.46206511,1.11103757 2.993433,0.430427175 C4.40966886,-0.203474665 7.01411206,0.0500860713 9.00936146,0.0500860713 L79.6154813,0.0500860713 C82.4658376,0.0467497458 84.6410507,-0.155654 86.154534,1.18888517 C87.5707699,2.44890409 88,3.84460024 88,6.58817189 L88,8.66670266 L87.9988822,8.66670266 Z M1.77280984,20.4661738 L3.33994691,20.4239136 C3.31759117,17.0342069 3.30417773,13.642276 3.30417773,10.2503452 C2.71398631,10.2570178 2.23110242,10.1791702 1.74151181,10.1469191 L1.77392762,20.4672859 L1.77280984,20.4661738 Z M47.9374039,8.70229013 L47.9374039,9.01145629 L72.5790136,9.01145629 C72.1564901,8.81127676 71.6624284,8.92582394 71.187369,8.84019158 C69.431326,8.52435277 67.1566299,8.70229013 65.1066089,8.70229013 L47.9374039,8.70229013 L47.9374039,8.70229013 Z M47.9374039,9.56639843 L47.9340506,11.2290006 L79.8647478,11.1934132 L79.8647478,10.2258788 L79.7976806,10.2258788 L77.7800755,10.0145782 L75.2762331,9.53081096 L70.442923,9.56639843 L48.0055889,9.53081096 L47.9374039,9.56639843 L47.9374039,9.56639843 Z M15.2734386,29.0505392 L15.2689674,29.0505392 C17.2083275,31.3570522 17.473243,35.567495 20.5057985,36.7663479 C22.3557356,37.5025637 23.5640632,35.260553 24.4728238,34.4854134 C26.9375437,32.3679588 29.8449071,30.8154554 33.2720414,29.6377325 L36.5270365,28.8759382 C36.9674445,28.7736242 37.4212659,28.8692655 37.7789577,28.7057856 L18.9967864,28.6701981 C18.4490708,29.0505392 16.0167668,28.6946645 15.2734386,29.0505392 Z M20.1089842,37.8406447 L20.1056309,37.8406447 C16.8182199,36.9053615 15.9139304,31.7485144 14.002515,29.2929788 C12.0933352,26.8374433 9.91476876,27.0075959 5.62246751,27.0075959 C5.68375875,28.8302693 6.08397523,30.6258653 6.80285036,32.3034565 C8.54883331,36.541702 10.8592986,39.3642333 14.8039681,41.3715892 C15.8099762,41.9354282 16.8942294,42.343572 18.0231941,42.5815632 L18.0913791,42.5137246 L20.1089842,37.8406447 L20.1089842,37.8406447 Z M30.6497136,34.6199785 L30.6463602,34.6199785 C30.2137767,34.9335931 27.7926506,36.879783 28.4465558,37.7594608 C28.9473243,38.9116052 32.6349029,38.9049325 34.2199245,39.0406098 C37.9041498,39.360897 41.8991197,39.0050223 45.698477,39.0050223 L50.0835546,39.0761972 L53.363141,39.0761972 C55.2913232,38.7592463 58.6860416,39.176287 59.4841414,37.8973622 C60.1592846,36.818617 57.7415118,34.8168217 57.2228587,34.4387048 C54.830795,32.7015914 51.9826743,32.0365505 48.4594104,31.3248011 C47.2253738,31.0723524 45.4369149,31.3181284 44.0061478,31.1146126 L42.3361744,31.1857875 L39.1381864,31.5416622 C35.8518933,32.1866851 32.9109962,32.9829548 30.6497136,34.6199785 L30.6497136,34.6199785 Z M53.850496,29.8456968 L53.8460249,29.8456968 C56.9221741,30.9911685 59.7412324,32.2256089 61.9656281,34.2084984 C63.0465279,35.1693601 64.3766941,37.7383307 66.6938661,36.6996214 C69.5811094,35.4073513 69.9242699,31.201357 71.8457454,28.9126377 C69.1775884,28.5823415 66.1260305,28.6713102 63.1493643,28.6713102 L50.2735783,28.6713102 L50.2735783,28.9493373 C51.5087327,28.9593463 52.8500768,29.489822 53.850496,29.8456968 L53.850496,29.8456968 Z M72.424759,30.0870243 L72.4214056,30.0870243 C70.7760235,32.9773943 69.9891016,36.7819174 66.6156211,37.9451829 C66.6659215,38.4256138 66.9699595,38.8059549 67.1387453,39.1907444 L68.529272,42.4436618 C70.1277071,42.1834284 71.5484141,41.2514814 72.7723907,40.539732 C77.2468912,38.0019004 80.4337013,33.0941657 81.3279307,27.0442955 L81.2955149,27.008708 L76.7382982,27.008708 L75.5199106,27.3901612 C74.2299296,27.9446726 73.1473588,28.8879366 72.424759,30.0870243 L72.424759,30.0870243 Z M47.9374039,11.7806064 L47.9374039,13.406509 L79.8759257,13.406509 L79.8401565,11.745019 L48.0044711,11.745019 L47.9362862,11.7806064 L47.9374039,11.7806064 Z M47.9374039,13.9614512 C47.9374039,14.3139896 47.8368031,15.0546538 48.0044711,15.2748513 L79.8681012,15.2426002 L79.8681012,13.9614512 L47.9374039,13.9614512 L47.9374039,13.9614512 Z M79.8681012,17.5591222 L79.8647478,17.5591222 L79.832332,15.7797486 L47.9374039,15.7797486 L47.9374039,17.5591222 L79.8681012,17.5591222 Z M47.9374039,18.1151764 C47.9374039,18.5811499 47.8189185,20.2037161 48.0044711,20.4672859 L79.8681012,20.4316984 L79.8681012,18.1151764 L47.9374039,18.1151764 L47.9374039,18.1151764 Z M41.6744446,18.1151764 L41.6710912,18.1151764 C41.6710912,18.9114461 41.4989521,20.8843265 41.8141679,21.3736543 L41.8499371,21.3736543 L42.0243119,21.3391789 L42.0243119,21.3035914 C41.9712355,20.7352244 42.018523,20.1620009 42.1640352,19.6098502 C42.4356574,18.4132215 42.3652368,17.0475522 43.9524941,17.0475522 L44.8221322,17.0831397 C45.9063854,17.5313194 46.0740534,19.9512675 46.0740534,21.3747664 C46.3177309,21.4047933 46.5647618,21.3692058 46.7894369,21.2713403 L46.7894369,7.97274696 C46.2920218,7.74476472 42.3786503,7.79814593 41.745983,7.93938371 L41.7102138,8.04392191 C41.7001537,11.4024895 41.687858,14.7610572 41.6744446,18.1151764 Z M42.7184575,26.834107 L42.7151041,26.834107 C42.3685902,27.6414977 41.6744446,27.961785 40.8148666,28.0574263 C40.204555,28.115256 39.2499651,27.9261975 39.0096409,28.5423056 L39.0096409,28.7157945 C39.3885706,29.2218039 40.5801313,29.171759 41.3379908,29.3029878 C43.1152718,29.6054813 48.0592427,29.6699836 49.132318,28.6802071 L48.9925947,28.3243323 C47.3796283,27.5024842 45.9164454,28.6846555 45.2334777,26.4893533 C44.7114713,24.8367601 45.1798239,22.3500855 44.8757859,20.5351245 C44.7360626,19.6943705 44.8869638,18.5244323 44.3213637,18.1151764 L43.7278189,18.1151764 C43.1946346,18.6056162 43.2874109,19.6699041 43.1733967,20.5028733 C42.9297192,22.232202 43.433841,25.1437021 42.7184575,26.834107 L42.7184575,26.834107 Z M15.3405058,9.01145629 L15.3449769,9.04704376 L40.5622468,9.01145629 L40.5622468,8.70229013 L22.9638117,8.70229013 C20.9249686,8.70229013 18.5955009,8.48431687 16.7712729,8.84019158 C16.2783289,8.92916026 15.72726,8.8290705 15.3405058,9.01145629 Z M8.83498673,10.1535917 L8.83498673,11.2245522 L40.5577756,11.2245522 C40.5689535,10.7941662 40.6941456,9.80883808 40.4907084,9.52747463 L18.1595641,9.5630621 L12.5583345,9.52747463 L10.3652368,9.97899068 L8.83386894,10.1535917 L8.83498673,10.1535917 Z M8.83498673,11.7806064 L8.83498673,13.406509 L40.5577756,13.406509 C40.5689535,12.9839078 40.6907922,12.021934 40.4907084,11.745019 L8.83498673,11.7806064 Z M40.5577756,13.9614512 L8.83498673,13.9614512 L8.8707559,15.2748513 L40.5577756,15.2426002 L40.5577756,13.9614512 Z M8.83498673,15.8297935 L8.83498673,17.5735796 L40.5577756,17.5735796 L40.5577756,15.794206 L8.83498673,15.8297935 Z M40.5577756,18.1151764 L8.83498673,18.1151764 C8.84840017,18.8981008 8.8707559,19.6832494 8.8707559,20.4672859 L40.5577756,20.4316984 L40.5577756,18.1151764 L40.5577756,18.1151764 Z M4.45326254,17.8371493 C4.45326254,18.6801275 4.29900796,21.627215 4.55609892,22.0854037 L7.68590191,22.0509283 L7.72167109,21.9830897 L7.72167109,11.0332695 C7.72167109,10.1791702 7.88933911,7.23875536 7.61883471,6.76277292 L4.55609892,6.76277292 L4.45326254,6.90067438 L4.45326254,17.8371493 L4.45326254,17.8371493 Z M14.7503144,45.3140138 C16.120721,46.2070369 16.5030041,47.6060694 16.4895906,49.9259277 L18.8179405,47.6060694 L20.9283219,46.0290995 L20.9283219,45.9935121 L18.1450328,43.7770798 L16.4750594,43.2933126 C15.2917471,42.841673 14.1407416,42.3103373 13.0300405,41.7029975 C8.65614084,39.2318924 4.69917563,33.4233498 4.51138745,27.059865 L4.40407992,27.059865 C4.10124886,27.1802762 3.84885015,27.4000031 3.68869638,27.6826457 C3.15215873,28.9037409 4.46779377,33.3410538 4.94061758,34.5376825 C6.22830795,37.8039451 7.98099762,40.8400013 10.5418471,42.8429087 C11.3932602,43.4959477 12.2884491,44.0904518 13.2211821,44.6222823 L14.75255,45.3129017 L14.7503144,45.3140138 Z M12.0005589,62.3960002 L12.0005589,62.4104576 C11.8105351,62.7841261 11.2706441,63.6916066 11.4774347,64.3321811 L12.5907503,66.6309093 C13.7990778,69.0797722 15.1057706,71.3217829 16.4851195,73.5526726 C18.8067626,77.3004782 21.51516,80.5811982 24.2090261,83.9342053 C25.2630991,85.2509418 26.6301523,86.3319112 27.685343,87.6375266 C28.5572167,88.6940297 29.5363979,89.6560035 30.6072377,90.5101028 C31.59089,91.2896909 32.3889898,92.3250639 33.4262959,93.0690645 L33.5291323,93.002338 C34.4490708,90.8448475 37.9253877,88.6450969 39.9675842,87.4640377 L53.0736342,79.0231342 L58.5362582,75.2864497 L58.5362582,75.2152748 C57.1658516,75.5711495 55.7563225,76.1972666 54.3255554,76.5987377 C52.4364957,77.1325498 50.2478692,77.2826845 48.2447953,77.6385592 C46.7604932,77.8627254 45.2545643,77.9093949 43.7591169,77.7775727 C42.2277491,77.6485681 40.6159005,77.790918 39.0632947,77.4995456 L34.8212938,76.7377513 C31.7895693,75.9805125 28.8753026,74.8169863 26.1584463,73.2790939 C24.644963,72.4249946 22.988403,71.3362403 21.9153277,70.0261765 C20.0544995,67.6333593 18.4461026,65.0563763 17.1155512,62.3359463 C16.8830516,61.8911029 15.695962,58.8939706 15.5171161,58.7771992 L14.3993293,59.4889486 C13.3710221,60.2463315 12.5469633,61.2450021 12.0005589,62.3960002 L12.0005589,62.3960002 Z M52.2800056,53.6770696 L52.2800056,53.691527 C59.197988,55.5921204 68.9093195,58.4246608 67.0627358,67.7630358 L67.098505,67.7630358 L67.1342741,67.6918608 C68.6980578,65.8835724 69.4816264,62.2614351 68.4543803,59.3855225 C68.2364119,58.7738628 68.0463882,58.0120685 67.58586,57.6561938 C62.2417214,53.3712398 55.9139304,50.9613007 46.8397373,50.9401706 L45.483862,52.4993467 C47.6300126,52.5026831 50.4624843,53.1755087 52.2800056,53.6781817 L52.2800056,53.6770696 Z M44.718178,48.2221775 C45.6131145,47.9652162 46.1667401,47.0753685 45.9987953,46.163829 C45.8308505,45.2522895 44.9959838,44.6156693 44.0676261,44.691233 C43.3589493,45.0048476 42.8335895,45.1616549 42.5720274,45.9045434 C42.3483551,46.5274419 42.4904299,47.2223752 42.9409055,47.7088452 C43.3913812,48.1953151 44.0759041,48.3930269 44.718178,48.2221775 Z M44.2319408,53.691527 L44.246472,53.691527 C43.5087327,52.7351137 42.5362582,51.876566 41.7280984,50.9579644 L41.3446975,50.9579644 L39.5025849,51.0647268 L35.1543943,51.6163326 C30.5211681,52.6283513 26.6838061,53.9017155 23.4645801,56.2427039 C22.4731033,56.9655744 21.4715663,57.6806602 20.8567836,58.7694144 C20.4073859,59.6601679 20.1248183,60.6249111 20.0229146,61.6164121 C19.9256672,62.7173995 20.0676261,63.8272838 20.4376135,64.8693295 C21.5822272,68.5670902 23.1739556,70.061764 26.0757301,71.9623574 C35.7188766,78.2935911 54.6128266,78.3458602 63.5003493,71.3039892 C66.2545759,69.1253687 67.1242141,64.8270694 64.8919939,61.4785107 C62.0774067,57.2291441 56.3543384,55.8401206 50.6312701,54.4533213 C49.0931955,54.0796529 45.5375157,53.2967285 44.2319408,53.691527 L44.2319408,53.691527 Z M30.0528154,103.282669 C30.0528154,101.140748 31.0688836,97.7844045 31.7764426,96.2074346 L32.8182199,94.0721863 C31.072237,92.7732436 29.5207489,91.1006325 27.9849099,89.5703712 C23.9759478,85.6528063 20.3527297,81.3627816 17.1647338,76.7588814 C15.9385217,74.9483687 14.6899539,73.0866991 13.6168786,71.1538546 L11.8284197,67.7619237 C11.9323739,68.5181574 12.4186111,69.2788396 12.733827,69.897172 C13.5510984,71.500113 14.432622,73.0698167 15.376275,74.602503 C18.2378091,79.2288743 21.4179125,83.4993709 24.2794467,88.1257422 C26.0733484,91.1408917 27.4989322,94.3583884 28.5259187,97.7098932 C29.0210982,99.5671144 29.5207489,101.424336 30.0203996,103.282669 L30.0528154,103.282669 L30.0528154,103.282669 Z M55.4813469,125.432534 C55.627777,123.706541 55.9206371,121.440064 55.6210703,119.510556 C55.3986307,118.226071 55.6881375,117.304133 55.4813469,116.118625 C55.1694844,114.321458 55.2991477,112.564326 54.9951097,111.065204 C54.5144614,108.698637 54.3613246,106.449954 53.5352801,104.457055 C53.0658097,103.329377 52.3057147,102.386309 51.7244656,101.375403 C50.7164707,99.6726246 49.5895802,98.0423445 48.3521028,96.4965829 C48.0514182,96.1329234 46.238368,94.2289936 46.2629593,94.1077738 L48.524242,92.3784451 C50.4088305,90.9983185 52.1581668,89.5103173 53.9857482,88.0868184 L60.0665083,83.1045724 L62.6061199,80.8203016 C65.8342506,78.2171776 68.74101,75.242684 71.2656141,71.9590211 C73.6554422,68.8484537 72.5220064,64.556827 70.852033,61.6386543 C70.5904709,61.1826898 70.2964929,60.4853978 69.8750873,60.1862406 C70.8330306,65.7267651 67.784826,69.374481 64.5097108,71.8833977 L62.7212519,73.4737129 C61.0288536,74.7902793 59.3004779,76.0604141 57.5380746,77.2826845 C54.5982954,79.3400852 51.6216292,81.5242662 48.4594104,83.3036398 L44.8824927,85.6557493 C43.3410647,86.5387634 41.9315356,87.6063876 40.4292301,88.502747 C37.6928881,90.1330981 35.3824228,91.8301756 33.8231102,94.6282406 C32.3062736,97.3428974 31.847981,99.973034 31.1795445,103.591835 C30.8196433,105.729582 30.7485935,107.905603 30.9682828,110.062082 C31.0286433,111.665743 31.0867682,113.269403 31.1437753,114.873064 C31.3539192,121.5168 31.5618276,128.159424 31.7697359,134.802048 L32.0134134,140.89529 L32.2559732,148.820175 C32.5566578,149.635351 33.7336873,150.222544 34.4021238,151.033271 C34.6882772,151.382473 35.5009082,152.176519 35.9692609,152.176519 L35.8977225,152.315532 L36.1771692,152.315532 L36.1045131,152.453434 C36.3437194,152.453434 36.5728657,152.553523 36.7349448,152.728124 C36.634344,152.745918 36.7304737,152.728124 36.6634065,152.799299 C36.9562666,152.731461 37.7431885,153.276394 38.2618416,153.561094 C39.3058544,154.130493 40.6337851,154.375157 41.9170043,154.667642 C46.5815286,155.735266 50.4233617,152.977237 52.770714,151.108895 C53.4860975,150.539495 54.4295096,149.727656 54.8911555,148.930274 C54.9694006,145.260316 55.050999,141.590358 55.1337152,137.923736 L55.2734386,131.108735 L55.4813469,125.432534 L55.4813469,125.432534 Z M72.4571748,51.4739827 C69.8885008,48.9228058 66.7162219,47.2290646 63.056588,45.7132607 C58.8973033,44.0083984 54.2976107,43.0397519 49.3536398,42.1144776 C47.3539192,41.7408092 45.7700154,41.944325 43.6808719,41.6985491 L41.5347213,41.6985491 L38.9951097,41.8375626 C37.4816264,42.0610964 35.8228308,42.0788902 34.1595641,42.4603434 C29.4738019,43.5346402 25.3916445,44.7701927 21.7756043,46.8198087 C20.6779377,47.4425894 19.8015928,48.3433973 18.8537097,49.1040795 C16.403521,51.0725115 15.2019002,53.4713295 16.3498673,57.5138439 C16.9825346,59.7413972 18.1986866,61.4996407 18.993433,63.4669607 L19.0292022,63.4669607 C18.4490708,59.2465089 20.4096689,57.0478705 22.8207349,55.3318871 C27.3310046,52.1223419 33.6766802,50.082735 40.9400587,49.8658738 L40.9400587,49.8302863 L40.8372223,49.7268603 C40.5041218,48.8405098 39.8893391,48.1899263 39.6892553,47.0611362 C39.2488473,44.5700132 42.0567277,41.6985491 44.7327092,42.1823163 C46.8497974,42.5671058 49.5537236,44.4888293 48.8383401,47.4103383 C48.6036049,48.3712 47.8982814,49.0262319 47.6546039,49.8658738 C48.9018915,49.8364259 50.1490549,49.9295532 51.3779517,50.1439009 C53.0233338,50.4386097 54.8799776,50.4463945 56.561129,50.9045832 C62.8173816,52.6061091 67.9860277,55.3608019 71.1694844,60.108393 C72.7120302,62.4104576 74.689395,66.3428732 73.3938801,70.1473964 C72.3744586,73.1500893 69.9142099,75.3398309 67.8641889,77.3783258 C63.8502275,81.4336036 59.5869783,85.2369226 55.0990639,88.7663167 C53.410088,90.0763805 51.7647059,91.4387134 50.0187229,92.7131898 C49.3648177,93.1902843 48.7064412,93.9231638 47.9340506,94.2367784 L49.9516557,96.6923139 C51.2594663,98.4605664 52.634344,100.23994 53.7074193,102.229502 C54.5178147,103.675243 55.1270085,105.22441 55.5171161,106.833631 L56.0391225,110.638154 L56.0715384,110.638154 L56.350985,104.617199 L56.4214056,101.57447 C56.5812491,100.40342 56.9098784,99.2612846 57.3938801,98.1825393 C58.6614503,95.5246 60.4275534,93.300383 62.1265894,91.065045 C66.7341065,85.0040537 72.335336,79.9906686 75.4114853,72.4149856 C76.7606539,69.097566 77.8292581,63.3601983 76.6634065,59.0897016 C75.8127707,55.9624526 74.4457175,53.4568721 72.4571748,51.4739827 L72.4571748,51.4739827 Z M82.2288668,34.1039602 C82.5832053,33.1330895 83.842951,28.9404405 83.3455358,27.7549328 C83.1648623,27.4086879 82.8492765,27.151391 82.4725444,27.0431834 C82.1260305,28.2353637 82.0578455,29.4597951 81.6744446,30.5741278 C80.1721392,34.9302568 77.8728518,38.3599994 74.4747799,40.816647 C73.3870052,41.5639662 72.2340456,42.2127008 71.0297611,42.7550521 L68.8377812,43.5168464 L66.0544921,45.7666419 L66.1260305,45.8689559 C67.8138885,46.2581939 69.1306413,47.6483295 70.5435238,48.3600789 C70.8475618,45.3462649 74.1450328,44.6167217 76.073215,43.1687565 C78.9313958,41.0223871 80.8987006,37.7627971 82.2288668,34.1050723 L82.2288668,34.1039602 Z M84.246472,11.0188121 C84.246472,10.1791702 84.4219645,7.23875536 84.1425178,6.75498816 L81.0808998,6.75498816 L80.9769456,6.89400173 C81.001537,11.9262926 81.0127148,16.9552472 81.0127148,21.9830897 L81.0808998,22.0498162 L84.2140562,22.0498162 L84.2475898,21.9830897 L84.2475898,11.0177 L84.246472,11.0188121 Z M86.2104234,20.4316984 L86.2104234,10.1535917 L85.4089702,10.2570178 L85.4089702,20.4661738 L86.2104234,20.4316984 Z M32.8361045,64.9015806 C34.6491547,62.434924 37.7253039,61.3962147 41.3592287,60.7267253 C42.1103814,59.2109215 42.5038424,56.1081388 44.0385636,55.4664522 C45.9589213,55.8734839 45.5363979,59.9971822 46.7178986,60.5888239 L49.3256951,61.2471921 C51.911136,62.1502242 54.4898701,63.6093106 55.7239067,65.8735634 C56.7723907,67.7908385 56.1598435,70.0195039 55.0621769,71.4430028 C52.8489591,74.3533907 47.6043035,76.0827194 43.1689255,75.7346294 C38.7335476,75.3854274 35.0314378,74.1576596 32.9747101,71.4418907 C31.4835825,69.4745707 31.3159145,66.9801114 32.8361045,64.9015806 Z M43.6875786,64.0363602 L41.1837362,64.2787999 C39.0811793,64.7481096 34.4345396,66.2861557 35.3433003,69.1943194 C36.9026128,74.2010318 49.4106469,74.079812 52.2475898,70.0940152 C53.0488201,68.9053706 52.7896089,67.3026371 51.654045,66.4240571 C49.7191561,64.8726658 47.1258907,64.0363602 43.6875786,64.0363602 L43.6875786,64.0363602 Z M42.8190583,102.279547 C47.1616599,102.218381 49.7795166,104.862975 51.3421825,107.706636 C55.9809976,116.172006 53.6247031,130.691695 50.4367752,139.379486 C49.2463323,142.637964 47.1828979,148.236318 43.412603,148.687834 C41.7918122,148.881341 40.3834009,147.645789 39.5853011,146.646003 C37.3273718,143.816799 36.0620372,140.332563 34.8525919,136.400148 C32.2168506,127.802437 30.442923,113.588578 35.690932,106.396573 C36.8378667,104.757678 38.4469535,103.493433 40.3152159,102.763314 C41.0305994,102.499744 42.1785664,102.535332 42.8190583,102.279547 L42.8190583,102.279547 Z M49.3245773,131.350063 C51.4070141,123.763259 52.0687439,109.10122 42.726282,109.164406 L41.5458991,109.339212 C40.4549392,109.652826 39.3136789,110.254477 38.684365,111.034065 C34.6022076,116.079701 35.0895627,125.951888 37.2927204,132.627876 C38.1690653,135.279142 39.0778259,137.791395 40.8405757,139.549639 C41.3558754,140.065657 42.2109823,140.930878 43.3801872,140.728474 C45.9019142,140.286967 46.9749895,137.478893 47.9374039,135.432613 C48.5148579,134.113455 48.9792729,132.748121 49.3256951,131.351175 L49.3245773,131.350063 Z" id="gd-hiw-razor-Shape"></path> </g> </g> </g> </g> </svg>