<svg xmlns="http://www.w3.org/2000/svg" viewBox="0 0 136 89" id="icon-gd-hiw-delivery">  <g id="gd-hiw-delivery-Page-1" stroke="none" stroke-width="1" fill="none" fill-rule="evenodd"> <g id="gd-hiw-delivery-Home-Jost-Copy-2" transform="translate(-1172.000000, -1014.000000)"> <g id="gd-hiw-delivery-Group-6" transform="translate(1172.000000, 1014.000000)"> <rect id="gd-hiw-delivery-Rectangle" stroke="#13246B" stroke-width="1.5" x="0.75" y="0.75" width="88.5" height="73.5" rx="1"></rect> <path d="M89,16 L113.395399,16 C113.724672,16 114.032842,16.1620939 114.219403,16.4334165 L135,46.6554439 L135,46.6554439 L135,74 L89,74" id="gd-hiw-delivery-Rectangle" stroke="#13246B" stroke-width="1.5"></path> <line x1="50.1904762" y1="65.8412698" x2="89.2697638" y2="65.8412698" id="gd-hiw-delivery-Line-2-Copy" stroke="#13246B" stroke-width="1.5" stroke-linecap="round"></line> <circle id="gd-hiw-delivery-Oval" stroke="#13246B" stroke-width="1.5" fill="#FFFFFF" cx="30.7619048" cy="75.015873" r="12.7420635"></circle> <circle id="gd-hiw-delivery-Oval-Copy" stroke="#13246B" stroke-width="1.5" fill="#FFFFFF" cx="110.634921" cy="75.015873" r="12.7420635"></circle> <line x1="128.444444" y1="65.8412698" x2="134.920635" y2="65.8412698" id="gd-hiw-delivery-Line-2-Copy-2" stroke="#13246B" stroke-width="1.5" stroke-linecap="round"></line> <path d="M98.2222222,24.8253968 L133.120861,24.8253968 C133.673146,24.8253968 134.120861,25.2731121 134.120861,25.8253968 L134.120861,45.4126984 C134.120861,45.9649832 133.673146,46.4126984 133.120861,46.4126984 L112.657149,46.4126984 L112.657149,46.4126984" id="gd-hiw-delivery-Rectangle" stroke="#13246B" stroke-width="1.5" transform="translate(116.171542, 35.619048) rotate(-180.000000) translate(-116.171542, -35.619048) "></path> <line x1="1.07936508" y1="65.8412698" x2="11.8730159" y2="65.8412698" id="gd-hiw-delivery-Line-2-Copy" stroke="#13246B" stroke-width="1.5" stroke-linecap="round"></line> <line x1="11.4126984" y1="9.17460317" x2="88.5699095" y2="9.17460317" id="gd-hiw-delivery-Line-2" stroke="#13246B" stroke-width="1.5" stroke-linecap="round"></line> <path d="M20.584,26.6 L20.584,42 L24.676,42 L24.675,36.236 L30.176,36.236 L30.176,32.87 L24.675,32.87 L24.675,30.253 L30.396,30.252 L30.396,26.6 L24.676,26.6 L23.51,26.6 L20.584,26.6 Z M33.102,26.6 L33.102,42 L37.37,42 L37.369,36.918 L38.288,36.918 L41.308,42 L46.302,42 L42.462,36.342 L42.65,36.258 L42.65,36.258 C43.574,35.818 44.2596667,35.2056667 44.707,34.421 C45.1543333,33.6363333 45.378,32.7526667 45.378,31.77 C45.378,30.7433333 45.1543333,29.845 44.707,29.075 C44.2596667,28.305 43.574,27.7 42.65,27.26 C41.726,26.82 40.5673333,26.6 39.174,26.6 L35.83,26.6 L33.102,26.6 Z M37.369,30.208 L38.822,30.208 C39.262,30.208 39.6396667,30.274 39.955,30.406 C40.2703333,30.538 40.5123333,30.7323333 40.681,30.989 C40.8496667,31.2456667 40.934,31.55 40.934,31.902 C40.934,32.298 40.8496667,32.6206667 40.681,32.87 C40.5123333,33.1193333 40.2703333,33.31 39.955,33.442 C39.6396667,33.574 39.262,33.64 38.822,33.64 L37.369,33.64 L37.369,30.208 Z M47.93,26.6 L47.93,42 L52.022,42 L58.622,42 L58.622,38.524 L52.022,38.524 L52.022,35.686 L58.182,35.686 L58.182,32.32 L52.022,32.32 L52.022,30.076 L58.622,30.076 L58.622,26.6 L52.022,26.6 L50.856,26.6 L47.93,26.6 Z M61.548,26.6 L61.548,42 L65.64,42 L72.24,42 L72.24,38.524 L65.64,38.524 L65.64,35.686 L71.8,35.686 L71.8,32.32 L65.64,32.32 L65.64,30.076 L72.24,30.076 L72.24,26.6 L65.64,26.6 L64.474,26.6 L61.548,26.6 Z" id="gd-hiw-delivery-FREE" fill="#13246B" fill-rule="nonzero"></path> </g> </g> </g> </svg>