<svg xmlns="http://www.w3.org/2000/svg" viewBox="0 0 57 39" id="icon-gd-terracycle-white">  <g id="gd-terracycle-white-Symbols" stroke="none" stroke-width="1" fill="none" fill-rule="evenodd"> <g id="gd-terracycle-white-footer-copy-2" transform="translate(-1359.000000, -400.000000)" fill="#FFFFFF" fill-rule="nonzero"> <g id="gd-terracycle-white-5b12dac5541a84c38f13a3a3_terracycle_logo" transform="translate(1359.000000, 400.000000)"> <path d="M41.9059369,7.6152373 L43.1512336,9.32168267 L31.5068405,10.9270276 L35.9440923,0 L37.3897005,1.89611097 C37.3897005,1.89611097 39.0861052,0.987569152 42.5467707,0.874205806 C50.3388324,0.874205806 56.7061856,7.18685465 56.7061856,15.0672423 C56.7061856,22.9473574 50.3730319,29.2828969 42.5920987,29.2828969 C34.8111654,29.2828969 29.8440925,22.0390881 29.2019015,21.207666 C28.0087183,19.6641805 22.2222141,12.448985 21.8894474,12.0151522 C21.5566807,11.5813194 19.0234735,7.77765209 14.9974302,7.77765209 C11.0536286,7.77765209 7.82720261,10.9796216 7.82720261,15.0217334 C7.82693118,18.4166386 9.9986006,20.494785 11.6496773,21.4711813 C13.3010255,22.4475776 15.6008074,22.2838003 15.9297742,22.2325688 L14.7422909,20.6479345 L26.255043,19.0774707 L21.9494323,29.9690722 L20.4709817,27.931802 C20.4709817,27.931802 18.5031522,28.7833897 15.0137157,29.0218342 C7.17116899,29.0218342 0.881443299,22.6516862 0.881443299,14.7832889 C0.881443299,6.91461911 7.20509709,0.715878632 14.9746305,0.715878632 C22.7441639,0.715878632 26.035189,6.06303148 26.3744699,6.43773004 C26.7137509,6.8124286 35.6029114,18.3144481 36.0553764,18.8823549 C36.5078415,19.4502617 38.3852865,22.1979603 42.3660018,22.1979603 C46.3467172,22.1979603 49.6038142,18.9278637 49.6038142,14.9083701 C49.6038142,10.8888764 46.3244604,7.4596352 41.9059369,7.6152373" id="gd-terracycle-white-Path"></path> <path d="M53.8736427,36.5270465 L53.8752855,35.9167332 L56.4808417,35.9145388 L56.4819369,34.5559402 L53.8769284,34.5559402 L53.8785712,33.9843029 L56.6744238,33.9843029 L56.6788048,32.438633 L52.1311291,32.438633 L52.1160697,38.0724421 L56.7018046,38.0724421 L56.7061856,36.5267722 L53.8736427,36.5267722 L53.8736427,36.5270465 Z M48.7235896,32.4389073 L46.9389096,32.4411017 L46.9243978,38.0727164 L51.2144202,38.0727164 L51.2188011,36.4631351 L48.7123635,36.4650551 L48.7235896,32.4389073 Z M22.6871948,34.4220827 C22.6888377,33.8430394 22.5215411,33.4233633 22.202281,33.0848794 C21.8315451,32.6926331 21.2294415,32.4427475 20.285078,32.4427475 L17.6795219,32.4427475 L17.6650101,38.0762823 L19.4464044,38.0762823 L19.4507853,36.4667009 L19.8319259,36.4667009 L20.8332414,38.0762823 L22.8679081,38.0762823 L21.6316653,36.1603099 C22.2792211,35.830055 22.6844568,35.2597892 22.6871948,34.4220827 M20.9112775,34.5745925 C20.9101815,34.921031 20.6519806,35.1226401 20.2251141,35.1226401 L19.454071,35.1226401 L19.4570829,34.0207846 L20.2357926,34.0207846 C20.6465044,34.0207846 20.9118243,34.1979812 20.9112775,34.5578603 L20.9112775,34.5745925 L20.9112775,34.5745925 Z M25.3086318,32.4029743 L23.0477999,38.0765566 L24.9515863,38.0765566 L25.2275847,37.3189452 L27.0955023,37.3189452 L27.3750602,38.0749108 L29.3089655,38.0749108 L27.0771572,32.4029743 L25.3086318,32.4029743 Z M25.6810106,35.982839 L26.170853,34.61464 L26.6557668,35.982839 L25.6810106,35.982839 Z M32.3950545,36.5051027 C31.8082841,36.5051027 31.3970247,35.9913423 31.3994889,35.2416855 C31.4014056,34.5658149 31.7997961,34.0109098 32.4018997,34.0109098 C32.8873611,34.0109098 33.1699309,34.2923397 33.366525,34.6961066 L34.8393378,33.7843396 C34.3922094,32.9238664 33.6014522,32.3195876 32.4262686,32.3195876 C30.836266,32.3195876 29.5909876,33.5777931 29.5865955,35.2740527 C29.5822258,37.0191373 30.8647421,38.1958763 32.3449477,38.1958763 C33.670178,38.1958763 34.4182212,37.5131483 34.8697305,36.6740703 L33.4023938,35.7979621 C33.1795142,36.2168153 32.8966706,36.5051027 32.3950545,36.5051027 M37.9873074,34.2923397 L37.0788127,32.4411017 L35.0819316,32.4411017 L37.0845627,36.0771976 L37.0790865,38.0749108 L38.8621237,38.0749108 L38.8678736,36.0538823 L40.8877546,32.4411017 L38.9133258,32.4411017 L37.9873074,34.2923397 Z M43.7287856,36.5051027 C43.1431104,36.5051027 42.7323986,35.9894222 42.734589,35.2416855 C42.7362319,34.5644435 43.1346224,34.0109098 43.7350832,34.0109098 C44.2232827,34.0109098 44.5047572,34.2904196 44.6997084,34.6936379 L46.1752593,33.7843396 C45.7264881,32.9224949 44.9351833,32.3195876 43.7621901,32.3195876 C42.1691757,32.3195876 40.9247187,33.5753244 40.9219695,35.2740527 C40.9175997,37.0213317 42.2017588,38.1958763 43.6786787,38.1958763 C45.0050043,38.1958763 45.7530475,37.5106796 46.205652,36.6740703 L44.7366725,35.7957677 C44.5154357,36.2148953 44.2320445,36.5051027 43.7287856,36.5051027 M16.7272179,34.4240028 C16.728587,33.8430394 16.5612903,33.4236376 16.2414827,33.0870738 C15.8688301,32.6926331 15.2686432,32.4427475 14.3237321,32.4427475 L11.7179021,32.4427475 L11.7044855,38.0762823 L13.4858798,38.0762823 L13.4905346,36.4667009 L13.871949,36.4667009 L14.8729907,38.0762823 L16.9079312,38.0762823 L15.6714146,36.1603099 C16.3189703,35.8317008 16.7244799,35.2597892 16.7272179,34.4240028 M14.9504817,34.5745925 C14.9493831,34.9232254 14.6911823,35.1226401 14.2643157,35.1226401 L13.4943679,35.1226401 L13.497106,34.0207846 L14.2730776,34.0207846 C14.6848847,34.0207846 14.9515736,34.1979812 14.9504817,34.5578603 L14.9504817,34.5745925 L14.9504817,34.5745925 Z M7.88294844,35.9205734 L10.4876831,35.9205734 L10.4887784,34.5600547 L7.88650794,34.5600547 L7.88705556,33.9886917 L10.681813,33.9886917 L10.6861939,32.4427475 L6.13851821,32.4446676 L6.12345877,38.078751 L10.7113842,38.0762823 L10.7157651,36.5328068 L7.88075798,36.5328068 L7.88294844,35.9205734 Z M0.293814433,34.038614 L1.86382902,34.038614 L1.85315051,38.078751 L3.6372829,38.078751 L3.64741379,34.038614 L5.21688076,34.0361453 L5.22126169,32.4446676 L0.298742975,32.4446676 L0.293814433,34.038614 Z" id="gd-terracycle-white-Shape"></path> <path d="M53.1774336,27.0309278 C53.3399116,27.0309278 53.4934534,27.0612047 53.6372464,27.1217586 C53.7810395,27.1820421 53.9093971,27.2698992 54.0223194,27.3842486 C54.1311796,27.493732 54.2135018,27.6191649 54.2703691,27.760277 C54.3280488,27.9011187 54.3556701,28.0506109 54.3556701,28.208213 C54.3556701,28.3682481 54.3264241,28.5196327 54.2671196,28.6623667 C54.2080859,28.8048304 54.1225141,28.9302633 54.0098627,29.0392061 C53.8969405,29.1492302 53.7685828,29.2341137 53.6247898,29.2927752 C53.4801843,29.3519774 53.3315169,29.3814433 53.1774336,29.3814433 C53.0203715,29.3814433 52.8700793,29.3508961 52.7262863,29.2898016 C52.5833056,29.2287071 52.4546772,29.1405797 52.3420257,29.0259599 C52.2323531,28.9153951 52.1489477,28.7899622 52.0915388,28.6491205 C52.0338591,28.5088195 52.0051546,28.3617602 52.0051546,28.2079427 C52.0051546,28.1008922 52.0192361,27.996545 52.0479405,27.8949011 C52.0761034,27.7935275 52.1188893,27.6943166 52.1762982,27.5972682 C52.2821797,27.4183101 52.422994,27.2790904 52.5990118,27.1798794 C52.7739465,27.0806685 52.9667538,27.0309278 53.1774336,27.0309278 M53.1806832,27.2282684 C53.0466388,27.2282684 52.9223431,27.2515168 52.8080669,27.2982838 C52.6929783,27.3447804 52.5892631,27.4139848 52.4982755,27.5053562 C52.4018718,27.6010529 52.3287567,27.7091847 52.2767637,27.8302923 C52.2255832,27.9514 52.1998575,28.0762922 52.1998575,28.2055097 C52.1998575,28.3352679 52.2239584,28.4590789 52.2721602,28.5758612 C52.3214452,28.6931843 52.39104,28.7969908 52.4820276,28.8880919 C52.5762649,28.9837885 52.682688,29.0567775 52.8034633,29.1078698 C52.9228847,29.1586917 53.047722,29.1843731 53.1777044,29.1843731 C53.3038957,29.1843731 53.4276498,29.1592324 53.5465295,29.1103028 C53.6662217,29.0608324 53.775082,28.9905468 53.8731104,28.8978237 C53.9640981,28.8099666 54.0358592,28.7069711 54.0862274,28.5893777 C54.1365956,28.4717844 54.1615089,28.3501361 54.1615089,28.2244328 C54.1615089,28.0849428 54.1382203,27.9565362 54.0916433,27.8386725 C54.0447955,27.7213495 53.9746591,27.615921 53.8820467,27.5226573 C53.7872678,27.424798 53.6808447,27.3512684 53.5616941,27.3023387 C53.4436268,27.2528684 53.3168939,27.2282684 53.1806832,27.2282684 M52.6913535,27.5326595 L53.2023469,27.5326595 C53.3883842,27.5326595 53.5283861,27.5640177 53.621811,27.6270045 C53.7152359,27.6894506 53.7618129,27.7827143 53.7618129,27.9070659 C53.7618129,27.993301 53.7360872,28.067101 53.685719,28.1279252 C53.6353508,28.1887493 53.5652145,28.2303801 53.4755808,28.2525471 L53.768312,28.8348369 L53.4143807,28.8348369 L53.1644354,28.3012064 L53.0073733,28.3012064 L53.0073733,28.8348369 L52.6916243,28.8348369 L52.6916243,27.5326595 L52.6913535,27.5326595 Z M53.0071025,27.7335143 L53.0071025,28.1106241 L53.1641646,28.1106241 C53.2575894,28.1106241 53.326101,28.0957559 53.3696993,28.06629 C53.4124852,28.0373648 53.4341489,27.9905977 53.4341489,27.927611 C53.4341489,27.8613802 53.4108604,27.8121802 53.3640125,27.780822 C53.3182479,27.7491935 53.2456744,27.7335143 53.1481876,27.7335143 L53.0071025,27.7335143 L53.0071025,27.7335143 Z" id="gd-terracycle-white-Shape"></path> </g> </g> </g> </svg>