<svg xmlns="http://www.w3.org/2000/svg" viewBox="0 0 51 49" id="icon-instagram"> <g fill="none" fill-rule="evenodd" transform="translate(.476)"> <g fill="#FFF" transform="translate(13.624 13.611)"> <path d="M10.9128157,0.00679880401 C7.94905709,0.00679880401 7.5774285,0.0191991384 6.41346299,0.0716226209 C5.2519233,0.123917824 4.45863337,0.3060317 3.76449926,0.57233957 C3.04688658,0.847584234 2.43830633,1.21591692 1.83158876,1.81476755 C1.22491451,2.41366094 0.851769778,3.014393 0.572929212,3.72275141 C0.303142191,4.40793403 0.118649109,5.19099376 0.0656707005,6.33755433 C0.0125623372,7.48650945 0,7.85334555 0,10.7788837 C0,13.7043792 0.0125623372,14.0712153 0.0656707005,15.2201704 C0.118649109,16.366731 0.303142191,17.1497907 0.572929212,17.8349733 C0.851769778,18.5433317 1.22491451,19.1440638 1.83158876,19.7429572 C2.43830633,20.3418078 3.04688658,20.7101405 3.76449926,20.9854279 C4.45863337,21.251693 5.2519233,21.4338069 6.41346299,21.4861021 C7.5774285,21.5385256 7.94905709,21.5509259 10.9128157,21.5509259 C13.8765309,21.5509259 14.2481595,21.5385256 15.412125,21.4861021 C16.5736647,21.4338069 17.3669546,21.251693 18.0610887,20.9854279 C18.7787014,20.7101405 19.3872817,20.3418078 19.9939992,19.7429572 C20.6006735,19.1440638 20.9738182,18.5433317 21.2527021,17.8349733 C21.5224458,17.1497907 21.7069389,16.366731 21.7599173,15.2201704 C21.8130257,14.0712153 21.825588,13.7043792 21.825588,10.7788837 C21.825588,7.85334555 21.8130257,7.48650945 21.7599173,6.33755433 C21.7069389,5.19099376 21.5224458,4.40793403 21.2527021,3.72275141 C20.9738182,3.014393 20.6006735,2.41366094 19.9939992,1.81476755 C19.3872817,1.21591692 18.7787014,0.847584234 18.0610887,0.57233957 C17.3669546,0.3060317 16.5736647,0.123917824 15.412125,0.0716226209 C14.2481595,0.0191991384 13.8765309,0.00679880401 10.9128157,0.00679880401 Z M10.9128157,1.94770769 C13.8266281,1.94770769 14.1717891,1.95869695 15.3224992,2.0105218 C16.3864859,2.05841274 16.9643101,2.23389886 17.3488475,2.38142007 C17.8582286,2.57683224 18.2217567,2.81025784 18.6036084,3.18722801 C18.9855035,3.56415541 19.2219786,3.92299543 19.4199438,4.42580761 C19.5693922,4.80538612 19.747171,5.37575874 19.7956876,6.42602431 C19.8481895,7.56189493 19.8593223,7.90260481 19.8593223,10.7788837 C19.8593223,13.6551199 19.8481895,13.9958298 19.7956876,15.1317004 C19.747171,16.181966 19.5693922,16.7523386 19.4199438,17.1319171 C19.2219786,17.6347293 18.9855035,17.9935693 18.6036084,18.3704967 C18.2217567,18.7474669 17.8582286,18.9808925 17.3488475,19.1763047 C16.9643101,19.3238259 16.3864859,19.499312 15.3224992,19.5472029 C14.1719624,19.5990278 13.8268447,19.610017 10.9128157,19.610017 C7.9987433,19.610017 7.6536689,19.5990278 6.50308877,19.5472029 C5.43910213,19.499312 4.86127794,19.3238259 4.47674046,19.1763047 C3.96735935,18.9808925 3.6038313,18.7474669 3.22197957,18.3704967 C2.84012784,17.9935693 2.60360936,17.6347293 2.40564425,17.1319171 C2.25619575,16.7523386 2.07841702,16.181966 2.02990041,15.1317004 C1.97739851,13.9958298 1.96626568,13.6551199 1.96626568,10.7788837 C1.96626568,7.90260481 1.97739851,7.56189493 2.02990041,6.42602431 C2.07841702,5.37575874 2.25619575,4.80538612 2.40564425,4.42580761 C2.60360936,3.92299543 2.84008452,3.56415541 3.22197957,3.18722801 C3.6038313,2.81025784 3.96735935,2.57683224 4.47674046,2.38142007 C4.86127794,2.23389886 5.43910213,2.05841274 6.50308877,2.0105218 C7.65379885,1.95869695 7.99895989,1.94770769 10.9128157,1.94770769 L10.9128157,1.94770769 Z"></path> <path d="M10.9128157 14.3695502C8.90379472 14.3695502 7.275196 12.7619538 7.275196 10.7788837 7.275196 8.79577096 8.90379472 7.18817451 10.9128157 7.18817451 12.9217933 7.18817451 14.550392 8.79577096 14.550392 10.7788837 14.550392 12.7619538 12.9217933 14.3695502 10.9128157 14.3695502zM10.9128157 5.24726562C7.81784565 5.24726562 5.30893032 7.7238262 5.30893032 10.7788837 5.30893032 13.8338985 7.81784565 16.3104591 10.9128157 16.3104591 14.0077424 16.3104591 16.5166577 13.8338985 16.5166577 10.7788837 16.5166577 7.7238262 14.0077424 5.24726562 10.9128157 5.24726562L10.9128157 5.24726562zM18.0476167 5.02872042C18.0476167 5.7426376 17.4613021 6.32134838 16.738058 6.32134838 16.0148573 6.32134838 15.4285427 5.7426376 15.4285427 5.02872042 15.4285427 4.31480324 16.0148573 3.7360497 16.738058 3.7360497 17.4613021 3.7360497 18.0476167 4.31480324 18.0476167 5.02872042"></path> </g> <ellipse cx="24.523" cy="24.5" stroke="#FFF" opacity=".197" rx="24.023" ry="24"></ellipse> </g> </svg>