<?xml version="1.0" encoding="utf-8"?>
<svg xmlns="http://www.w3.org/2000/svg" xmlns:xlink="http://www.w3.org/1999/xlink" viewBox="0 0 43 26" id="icon-logo-paypal"> <g fill="none" fill-rule="evenodd" transform="translate(.976)"> <rect width="40.656" height="24.306" x=".5" y=".5" fill="#FFF" stroke="#E5E5E5" rx="2"></rect> <g transform="translate(4.166 8.435)"> <path fill="#187FAE" d="M26.0299501,1.45559757 C25.2006236,1.45559757 24.5449382,1.6784656 24.0434543,1.77983652 L23.8888143,3.05622215 C24.1396293,2.93457705 24.9303689,2.711857 25.5863467,2.69143483 C26.2421782,2.67116065 26.6279013,2.81278396 26.4931394,3.38031311 C24.544792,3.38031311 23.2328366,3.78535281 22.9628743,5.06203442 C22.5767127,7.25001836 24.9501009,7.1893438 25.8951882,6.23704913 L25.7792813,6.76388192 L27.5154006,6.76388192 L28.2679918,3.27909018 C28.5763948,1.79981473 27.2451459,1.43547137 26.0299501,1.45559757 Z M26.1457109,5.02133806 C26.0493897,5.48705233 25.6829601,5.69009014 25.2393567,5.71036432 C24.8536336,5.73034253 24.5060589,5.3858294 24.7568739,4.98064171 C24.9501009,4.63642455 25.4901717,4.55517983 25.8180144,4.55517983 C25.9529224,4.55517983 26.1077086,4.55517983 26.2423244,4.55517983 C26.2035913,4.7173733 26.1840055,4.85944057 26.1457109,5.02133806 Z"></path> <polygon fill="#187FAE" points="29.753 .077 28.317 6.764 30.08 6.764 31.534 .077 29.753 .077"></polygon> <path fill="#187FAE" d="M21.6506265,0.0981152084 L18.4218948,0.0981152084 L16.9911092,6.76373394 L18.8663753,6.76373394 L19.3500273,4.55532782 L20.6840533,4.55532782 C21.9986396,4.55532782 23.0814121,3.74495243 23.371691,2.36719589 C23.6998261,0.807267665 22.578759,0.0981152084 21.6506265,0.0981152084 Z M21.5928923,2.36719589 C21.476693,2.8737545 20.9740399,3.27894219 20.4903878,3.27894219 L19.6205742,3.27894219 L20.0073205,1.45559757 L20.9354529,1.45559757 C21.4189588,1.45559757 21.7087992,1.86078526 21.5928923,2.36719589 Z"></path> <path fill="#195A7F" d="M9.12156898,1.45559757 C8.30218148,1.45559757 7.65409654,1.6784656 7.17775264,1.77983652 L7.02545122,3.05622215 C7.25404952,2.93457705 8.03558091,2.711857 8.68322736,2.69143483 C9.3313123,2.67116065 9.71250434,2.81278396 9.59791287,3.38031311 C7.67339,3.38031311 6.37765861,3.78535281 6.11076571,5.06203442 C5.72957367,7.25001836 8.07343702,7.1893438 8.98797637,6.23704913 L8.87396954,6.76388192 L10.6080426,6.76388192 L11.3511332,3.27909018 C11.6558822,1.79981473 10.3220024,1.43547137 9.12156898,1.45559757 Z M9.2547231,5.02133806 C9.15957125,5.48705233 8.77823304,5.69009014 8.34018375,5.71036432 C7.95899171,5.73034253 7.6350954,5.3858294 7.882841,4.98064171 C8.07329086,4.63642455 8.60678432,4.55517983 8.91182565,4.55517983 C9.06427324,4.55517983 9.19757352,4.55517983 9.35016727,4.55517983 C9.31201884,4.7173733 9.27401656,4.85944057 9.2547231,5.02133806 Z"></path> <polygon fill="#195A7F" points="12.107 1.551 13.84 1.551 14.12 4.656 15.817 1.551 17.606 1.551 13.486 8.981 11.547 8.981 12.815 6.797 12.107 1.551"></polygon> <path fill="#195A7F" d="M4.80860317,0.0981152084 L1.57154021,0.0981152084 L0.137246675,6.76373394 L2.03706807,6.76373394 L2.50215744,4.55532782 L3.85869247,4.55532782 C5.15749328,4.55532782 6.24304286,3.74495243 6.53376026,2.36719589 C6.86321074,0.807267665 5.7583677,0.0981152084 4.80860317,0.0981152084 Z M4.75043045,2.36719589 C4.63423119,2.8737545 4.14955603,3.27894219 3.66502703,3.27894219 L2.77328905,3.27894219 L3.18035187,1.45559757 L4.11067678,1.45559757 C4.57620464,1.45559757 4.8862155,1.86078526 4.75043045,2.36719589 Z"></path> <polygon fill="#195A7F" fill-rule="nonzero" points="31.915 .942 31.915 .153 31.625 .153 31.625 .048 32.324 .048 32.324 .153 32.033 .153 32.033 .942"></polygon> <path fill="#195A7F" fill-rule="nonzero" d="M32.4400568,0.941639625 L32.4400568,0.0477997169 L32.6150135,0.0477997169 L32.8244644,0.680443029 C32.8437579,0.739193765 32.8577895,0.783293813 32.8667054,0.812595188 C32.8766445,0.780186092 32.8925762,0.732386375 32.9136236,0.669344024 L33.1255594,0.0477997169 L33.2826842,0.0477997169 L33.2826842,0.941639625 L33.1702851,0.941639625 L33.1702851,0.193270682 L32.9126005,0.941639625 L32.8073634,0.941639625 L32.5521635,0.181135769 L32.5521635,0.941639625 L32.4400568,0.941639625 L32.4400568,0.941639625 Z"></path> </g> </g> </svg>