<?xml version="1.0" encoding="utf-8"?>
<svg xmlns="http://www.w3.org/2000/svg" xmlns:xlink="http://www.w3.org/1999/xlink" viewBox="0 0 43 26" id="icon-logo-mastercard"> <g fill="none" fill-rule="evenodd" transform="translate(.488)"> <rect width="40.656" height="24.306" x=".5" y=".5" fill="#FFF" stroke="#E5E5E5" rx="2"></rect> <g fill-rule="nonzero" transform="translate(9.599 3.49)"> <path fill="#231F20" d="M18.9496343,0.383817825 L18.9496343,0.344284589 L18.9871388,0.344284589 C18.9954293,0.344284589 19.0025354,0.346203678 19.0076676,0.349274221 C19.012405,0.352344763 19.0151685,0.357718213 19.0151685,0.364243116 C19.0151685,0.370768019 19.012405,0.37575765 19.0076676,0.378828193 C19.0025354,0.382282554 18.9954293,0.383817825 18.9871388,0.383817825 L18.9496343,0.383817825 Z M18.9875336,0.411452708 C19.006878,0.411452708 19.0218798,0.407230712 19.032539,0.39878672 C19.0431981,0.390342728 19.0483303,0.378828193 19.0483303,0.364243116 C19.0483303,0.351960945 19.0443825,0.341981682 19.0356972,0.333921508 C19.0274068,0.326245151 19.0155633,0.321255519 18.9997719,0.31933643 L19.0495147,0.263682846 L19.0108258,0.263682846 L18.9646361,0.318952612 L18.9496343,0.318952612 L18.9496343,0.263682846 L18.917262,0.263682846 L18.917262,0.411452708 L18.9875336,0.411452708 Z M18.977664,0.212635075 C18.9954293,0.212635075 19.0120102,0.216089435 19.027012,0.222614338 C19.0424086,0.229139241 19.0558312,0.237967051 19.06728,0.249097768 C19.0787287,0.260228485 19.0878087,0.273278291 19.0945201,0.288631004 C19.1008366,0.303599899 19.1043897,0.319720248 19.1043897,0.33699205 C19.1043897,0.354263852 19.1008366,0.370384201 19.0945201,0.385353096 C19.0878087,0.400321991 19.0787287,0.413755615 19.06728,0.424886332 C19.0558312,0.436017049 19.0424086,0.444844859 19.027012,0.451369762 C19.0120102,0.457510847 18.9954293,0.46058139 18.977664,0.46058139 C18.9598987,0.46058139 18.942923,0.457510847 18.9275264,0.451369762 C18.9117351,0.444844859 18.8979176,0.436017049 18.8864689,0.424886332 C18.8750201,0.413755615 18.8659401,0.400321991 18.8596236,0.385353096 C18.8529122,0.370384201 18.849754,0.354263852 18.849754,0.33699205 C18.849754,0.319720248 18.8529122,0.303599899 18.8596236,0.288631004 C18.8659401,0.273278291 18.8750201,0.260228485 18.8864689,0.249097768 C18.8979176,0.237967051 18.9117351,0.229139241 18.9275264,0.222614338 C18.942923,0.216089435 18.9598987,0.212635075 18.977664,0.212635075 M18.977664,0.496276447 C19.0009562,0.496276447 19.0222746,0.492054451 19.0428034,0.483610459 C19.0629373,0.475550285 19.0803078,0.46403575 19.0957044,0.449450673 C19.1107062,0.435249413 19.1225497,0.418361429 19.131235,0.39878672 C19.1399202,0.379595829 19.1442629,0.358869666 19.1442629,0.33699205 C19.1442629,0.315114434 19.1399202,0.294388272 19.131235,0.27519738 C19.1225497,0.256006489 19.1107062,0.239118505 19.0957044,0.224533428 C19.0803078,0.210332168 19.0629373,0.198817633 19.0428034,0.190373641 C19.0222746,0.181929649 19.0009562,0.177707653 18.977664,0.177707653 C18.9539769,0.177707653 18.9322638,0.181929649 18.9117351,0.190373641 C18.8912063,0.198817633 18.873441,0.210332168 18.8584392,0.224533428 C18.8434374,0.239118505 18.8315939,0.256006489 18.8229086,0.27519738 C18.8142234,0.294388272 18.8098808,0.315114434 18.8098808,0.33699205 C18.8098808,0.358869666 18.8142234,0.379595829 18.8229086,0.39878672 C18.8315939,0.418361429 18.8434374,0.435249413 18.8584392,0.449450673 C18.873441,0.46403575 18.8912063,0.475550285 18.9117351,0.483610459 C18.9322638,0.492054451 18.9539769,0.496276447 18.977664,0.496276447 M3.59648268,1.06547828 C3.59648268,1.34720057 3.78637381,1.57864271 4.09667407,1.57864271 C4.39315689,1.57864271 4.5933124,1.35717983 4.5933124,1.06547828 C4.5933124,0.773776735 4.39315689,0.55231385 4.09667407,0.55231385 C3.78637381,0.55231385 3.59648268,0.783755998 3.59648268,1.06547828 M4.93124755,1.06547828 L4.93124755,1.8668899 L4.57278363,1.8668899 L4.57278363,1.67229426 C4.45908583,1.81660976 4.2865652,1.90719077 4.05206347,1.90719077 C3.58977135,1.90719077 3.2273596,1.55484601 3.2273596,1.06547828 C3.2273596,0.575726737 3.58977135,0.223765792 4.05206347,0.223765792 C4.2865652,0.223765792 4.45908583,0.314346799 4.57278363,0.458662301 L4.57278363,0.264066663 L4.93124755,0.264066663 L4.93124755,1.06547828 Z M17.0448013,1.06547828 C17.0448013,1.34720057 17.2346924,1.57864271 17.5449927,1.57864271 C17.8418703,1.57864271 18.041631,1.35717983 18.041631,1.06547828 C18.041631,0.773776735 17.8418703,0.55231385 17.5449927,0.55231385 C17.2346924,0.55231385 17.0448013,0.783755998 17.0448013,1.06547828 M18.3799609,1.06547828 L18.3799609,2.51055239 L18.0211022,2.51055239 L18.0211022,1.67229426 C17.9074044,1.81660976 17.7348838,1.90719077 17.5003821,1.90719077 C17.03809,1.90719077 16.6756782,1.55484601 16.6756782,1.06547828 C16.6756782,0.575726737 17.03809,0.223765792 17.5003821,0.223765792 C17.7348838,0.223765792 17.9074044,0.314346799 18.0211022,0.458662301 L18.0211022,0.264066663 L18.3799609,0.264066663 L18.3799609,1.06547828 Z M9.38085856,1.59514688 C9.61180723,1.59514688 9.76024603,1.45428574 9.7981453,1.20633942 L8.94264826,1.20633942 C8.98094232,1.43778157 9.12543328,1.59514688 9.38085856,1.59514688 M9.38796467,1.90719077 C8.904749,1.90719077 8.56681385,1.56520909 8.56681385,1.06547828 C8.56681385,0.55576821 8.91856644,0.223765792 9.4120465,0.223765792 C9.66036566,0.223765792 9.88776128,0.28402519 10.0879168,0.448299219 L9.91223789,0.706608615 C9.77406347,0.599523442 9.59798978,0.538880226 9.43257527,0.538880226 C9.2016266,0.538880226 8.9912067,0.642894857 8.93948999,0.931525861 L10.1637153,0.931525861 C10.1672684,0.974897275 10.1708214,1.01865251 10.1708214,1.06547828 C10.1672684,1.56520909 9.84986201,1.90719077 9.38796467,1.90719077 M13.716377,1.06547828 C13.716377,1.34720057 13.9062681,1.57864271 14.2165684,1.57864271 C14.5130512,1.57864271 14.7132067,1.35717983 14.7132067,1.06547828 C14.7132067,0.773776735 14.5130512,0.55231385 14.2165684,0.55231385 C13.9062681,0.55231385 13.716377,0.783755998 13.716377,1.06547828 M15.0511418,1.06547828 L15.0511418,1.8668899 L14.6926779,1.8668899 L14.6926779,1.67229426 C14.5785853,1.81660976 14.4064595,1.90719077 14.1719578,1.90719077 C13.7096656,1.90719077 13.3472539,1.55484601 13.3472539,1.06547828 C13.3472539,0.575726737 13.7096656,0.223765792 14.1719578,0.223765792 C14.4064595,0.223765792 14.5785853,0.314346799 14.6926779,0.458662301 L14.6926779,0.264066663 L15.0511418,0.264066663 L15.0511418,1.06547828 Z M11.6919244,1.06547828 C11.6919244,0.579181098 12.0401239,0.223765792 12.5715032,0.223765792 C12.8198224,0.223765792 12.9852369,0.277500287 13.1644689,0.414907069 L12.992343,0.696629352 C12.8577217,0.602593985 12.716389,0.55231385 12.5608441,0.55231385 C12.2746256,0.55576821 12.0642057,0.756888751 12.0642057,1.06547828 C12.0642057,1.37406781 12.2746256,1.57518835 12.5608441,1.57864271 C12.716389,1.57864271 12.8577217,1.52836258 12.992343,1.43432721 L13.1644689,1.71604949 C12.9852369,1.85345628 12.8198224,1.90719077 12.5715032,1.90719077 C12.0401239,1.90719077 11.6919244,1.55177547 11.6919244,1.06547828 M16.3136612,1.90719077 C16.1067944,1.90719077 15.972173,1.8131554 15.879004,1.67229426 L15.879004,1.8668899 L15.5236984,1.8668899 L15.5236984,0.264066663 L15.8825571,0.264066663 L15.8825571,1.16258419 C15.8825571,1.42780231 15.9998079,1.57518835 16.2343096,1.57518835 C16.3069499,1.57518835 16.3827484,1.56520909 16.458547,1.53488748 L16.5690865,1.86343554 C16.4897349,1.89375715 16.3863015,1.90719077 16.3136612,1.90719077 M6.70422271,1.73946238 C6.53170208,1.85000192 6.29404208,1.90719077 6.03190548,1.90719077 C5.61422395,1.90719077 5.34537602,1.71259513 5.34537602,1.39402634 C5.34537602,1.1326464 5.54553153,0.971442915 5.91425983,0.92116278 L6.08362219,0.897749892 C6.28022464,0.870882645 6.37299889,0.820602509 6.37299889,0.730021503 C6.37299889,0.606048345 6.24193059,0.535425866 5.99716448,0.535425866 C5.74884531,0.535425866 5.56961335,0.612573248 5.44880944,0.703154255 L5.27984186,0.431795053 C5.47644432,0.290933911 5.72476349,0.223765792 5.99361142,0.223765792 C6.46972098,0.223765792 6.74567503,0.441774316 6.74567503,0.746909487 C6.74567503,1.02863177 6.52854381,1.17601782 6.16968511,1.22629795 L6.00071754,1.25009466 C5.8455674,1.27005318 5.72121043,1.29999097 5.72121043,1.40745996 C5.72121043,1.52490822 5.83846129,1.59514688 6.03506375,1.59514688 C6.24548365,1.59514688 6.44919221,1.5179995 6.54907258,1.4577401 L6.70422271,1.73946238 Z M11.3295126,1.90719077 C11.1226458,1.90719077 10.9880244,1.8131554 10.8952502,1.67229426 L10.8952502,1.8668899 L10.5399445,1.8668899 L10.5399445,0.264066663 L10.8984084,0.264066663 L10.8984084,1.16258419 C10.8984084,1.42780231 11.0156593,1.57518835 11.250161,1.57518835 C11.3228013,1.57518835 11.3985998,1.56520909 11.4743984,1.53488748 L11.5849379,1.86343554 C11.5055863,1.89375715 11.4021529,1.90719077 11.3295126,1.90719077 M8.27033103,1.8668899 L7.68407672,1.8668899 L7.68407672,2.35318708 L7.32166496,2.35318708 L7.32166496,1.8668899 L6.98728287,1.8668899 L6.98728287,1.54832111 L7.32166496,1.54832111 L7.32166496,0.817148149 C7.32166496,0.445228677 7.47010376,0.223765792 7.89410183,0.223765792 C8.04964675,0.223765792 8.2288787,0.270591566 8.34257651,0.347738949 L8.23914309,0.646349217 C8.13215661,0.586089818 8.01490575,0.55576821 7.92173671,0.55576821 C7.74250476,0.55576821 7.68407672,0.663237201 7.68407672,0.82405687 L7.68407672,1.54832111 L8.27033103,1.54832111 L8.27033103,1.8668899 Z M2.910348,0.264066663 L2.910348,1.27005318 C2.910348,1.64888138 2.66202884,1.90373641 2.26171781,1.90719077 C2.05129792,1.91064513 1.83416669,1.84693137 1.68217483,1.62201413 C1.56847702,1.79972178 1.38924507,1.90719077 1.13737284,1.90719077 C0.961299158,1.90719077 0.789173313,1.85691064 0.654551952,1.66922372 L0.654551952,1.8668899 L0.295693252,1.8668899 L0.295693252,0.264066663 L0.657710225,0.264066663 L0.657710225,1.15260493 C0.657710225,1.43087285 0.816413412,1.57864271 1.06157431,1.57864271 C1.29962909,1.57864271 1.42003822,1.42780231 1.42003822,1.15605929 L1.42003822,0.264066663 L1.78244998,0.264066663 L1.78244998,1.15260493 C1.78244998,1.43087285 1.94786449,1.57864271 2.18591928,1.57864271 C2.43068539,1.57864271 2.54793625,1.42780231 2.54793625,1.15605929 L2.54793625,0.264066663 L2.910348,0.264066663 Z" transform="matrix(1 0 0 -1 1.075 17.255)"></path> <path fill="#F79410" d="M1.32582404,-1.25943134e-16 L1.32582404,0.691980892 L1.18969666,0.691980892 L1.03216559,0.216669427 L0.875490671,0.691980892 L0.738507136,0.691980892 L0.738507136,-1.25943134e-16 L0.835251758,-1.25943134e-16 L0.835251758,0.521821656 L0.982509058,0.071466879 L1.08267827,0.071466879 L1.22993557,0.522956051 L1.22993557,-1.25943134e-16 L1.32582404,-1.25943134e-16 Z M0.461971623,-9.81875586e-17 L0.461971623,0.574003822 L0.636625631,0.574003822 L0.636625631,0.690846497 L0.19142914,0.690846497 L0.19142914,0.574003822 L0.366083148,0.574003822 L0.366083148,-9.81875586e-17 L0.461971623,-9.81875586e-17 Z" transform="matrix(1 0 0 -1 19.344 11.941)"></path> <polygon fill="#FF5F00" points="12.896 12.419 7.523 12.419 7.523 2.746 12.896 2.746"></polygon> <path fill="#EB001B" d="M7.960666,6.44813946 C7.960666,8.47003419 8.89564622,10.2710801 10.351652,11.4317452 C9.28691295,12.2804816 7.94315253,12.7870636 6.48276835,12.7870636 C3.02545111,12.7870636 0.222898648,9.94907617 0.222898648,6.44813946 C0.222898648,2.94720274 3.02545111,0.109215362 6.48276835,0.109215362 C7.94315253,0.109215362 9.28691295,0.615797318 10.351652,1.46453367 C8.89564622,2.62519878 7.960666,4.42624473 7.960666,6.44813946" transform="matrix(1 0 0 -1 0 14.03)"></path> <path fill="#F79E1B" d="M10.2095541,6.44813946 C10.2095541,2.94720274 7.44472834,0.109215362 4.03395191,0.109215362 C2.59322675,0.109215362 1.26755541,0.615797318 0.216756688,1.46453367 C1.6535551,2.62519878 2.57594904,4.42624473 2.57594904,6.44813946 C2.57594904,8.47003419 1.6535551,10.2710801 0.216756688,11.4317452 C1.26755541,12.2804816 2.59322675,12.7870636 4.03395191,12.7870636 C7.44472834,12.7870636 10.2095541,9.94907617 10.2095541,6.44813946" transform="matrix(1 0 0 -1 10.21 14.03)"></path> </g> </g> </svg>