<?xml version="1.0" encoding="utf-8"?>
<!DOCTYPE svg PUBLIC "-//W3C//DTD SVG 1.1//EN" "http://www.w3.org/Graphics/SVG/1.1/DTD/svg11.dtd">
<svg xmlns="http://www.w3.org/2000/svg" xmlns:xlink="http://www.w3.org/1999/xlink"  viewBox="0 0 42 26" id="icon-logo-visa"> <g fill="none" fill-rule="evenodd"> <rect width="40.656" height="24.306" x=".5" y=".5" fill="#FFF" stroke="#E5E5E5" rx="2"></rect> <g fill-rule="nonzero" transform="translate(8.331 4.218)"> <polygon fill="#FFF" points="0 .396 0 15.503 24.958 15.503 24.958 .396"></polygon> <polygon fill="#0058A0" points="4.134 5.603 5.59 11.208 7.279 11.208 9.908 4.716 8.193 4.716 6.537 9.123 5.857 5.674"></polygon> <polygon fill="#0058A0" points="10.548 4.692 9.538 11.208 11.136 11.208 12.167 4.692"></polygon> <path fill="#0058A0" d="M16.860429 6.24801659L17.0966873 4.88369395C17.0966873 4.88369395 16.3922323 4.59679151 15.5474829 4.59679151 14.7032478 4.59679151 12.8703688 5.14716516 12.8703688 6.75246502 12.8703688 8.35641108 15.1494334 8.42941239 15.1494334 9.31438405 15.1494334 10.1993557 13.1053929 10.1051101 12.4967989 9.52901415L12.2385296 10.9449896C12.2385296 10.9449896 13.1538376 11.3018734 13.9731818 11.3018734 14.7942746 11.3018734 16.8383151 11.1102579 16.8383151 9.02946025 16.8383151 7.20692682 14.5632619 7.56662229 14.5632619 6.46462533 14.5633647 6.46441705 14.7943774 5.36346148 16.860429 6.24801659L16.860429 6.24801659zM16.7423513 11.2083567L18.505083 11.2083567 18.8088143 10.2736067 20.9693897 10.2736067 21.1482548 11.1975263 22.6746254 11.1975263 21.2753838 4.76487156 19.8669881 4.76487156C19.8669881 4.76487156 19.3503467 4.82381413 19.1142941 5.45937333 18.8932583 6.06181639 16.7423513 11.2083567 16.7423513 11.2083567L16.7423513 11.2083567z"></path> <polygon fill="#FFF" points="20.711 8.931 19.28 8.931 20.171 6.536"></polygon> <path fill="#0058A0" d="M6.35902017,8.22228028 L5.85688129,5.67410757 C5.85688129,5.67410757 5.78889403,4.71821737 5.12167261,4.71821737 L2.39446809,4.71821737 L2.39446809,4.85068195 C2.39446809,4.85068195 5.09246175,5.30628927 6.35902017,8.22228028 L6.35902017,8.22228028 Z"></path> <rect width="24.958" height="3.776" y="12.158" fill="#FAA61A"></rect> <rect width="24.958" height="3.775" fill="#0058A0"></rect> </g> </g> </svg>