<?xml version="1.0" encoding="utf-8"?>
<!-- Generated by IcoMoon.io -->
<!DOCTYPE svg PUBLIC "-//W3C//DTD SVG 1.1//EN" "http://www.w3.org/Graphics/SVG/1.1/DTD/svg11.dtd">
<svg xmlns="http://www.w3.org/2000/svg" xmlns:xlink="http://www.w3.org/1999/xlink" viewBox="0 0 42 26" id="icon-logo-american-express">  <g id="logo-american-express-Symbols" stroke="none" stroke-width="1" fill="none" fill-rule="evenodd"> <g id="logo-american-express-footer-copy-2" transform="translate(-514.000000, -406.000000)"> <g id="logo-american-express-Group-12" transform="translate(266.000000, 361.000000)"> <g id="logo-american-express-Group-10" transform="translate(248.000000, 45.000000)"> <g id="logo-american-express-Group-8-Copy-3" fill="#26A6D1" stroke="#1F9AC4"> <rect id="logo-american-express-Rectangle-Copy-5" x="0.5" y="0.5" width="40.6563392" height="24.3057325" rx="2"></rect> </g> <path d="M7.83717596,9 L4,17.4363552 L8.59363714,17.4363552 L9.1631139,16.0912488 L10.4648131,16.0912488 L11.0342899,17.4363552 L16.0905936,17.4363552 L16.0905936,16.4097291 L16.5411408,17.4363552 L19.1566586,17.4363552 L19.6072058,16.3880296 L19.6072058,17.4363552 L30.1229484,17.4363552 L31.4016076,16.1261797 L32.5988938,17.4363552 L38,17.447205 L34.1507047,13.2417295 L38,9 L32.6826639,9 L31.4379656,10.285962 L30.2783693,9 L18.8386253,9 L17.8562912,11.1774953 L16.850917,9 L12.2668688,9 L12.2668688,9.99169514 L11.7569234,9 C11.7569234,9 7.83717596,9 7.83717596,9 Z M8.72601785,10.197973 L10.9651696,10.197973 L13.5103684,15.918711 L13.5103684,10.197973 L15.9632737,10.197973 L17.9291405,14.2997141 L19.7409183,10.197973 L22.1815711,10.197973 L22.1815711,16.2516136 L20.6964833,16.2516136 L20.6843639,11.5080162 L18.5192601,16.2516136 L17.1907918,16.2516136 L15.0135687,11.5080162 L15.0135687,16.2516136 L11.9584244,16.2516136 L11.3792255,14.8944666 L8.25003329,14.8944666 L7.67203303,16.2504228 L6.03512029,16.2504228 C6.03512029,16.2504228 8.72601785,10.197973 8.72601785,10.197973 Z M23.5402712,10.197973 L29.578909,10.197973 L31.4258463,12.1800402 L33.3323149,10.197973 L35.1792522,10.197973 L32.3730209,13.2405387 L35.1792522,16.2480411 L33.2485448,16.2480411 L31.4016076,14.2429513 L29.4854168,16.2480411 L23.5402712,16.2480411 L23.5402712,10.197973 L23.5402712,10.197973 Z M9.81529531,11.2222175 L8.78435059,13.639863 L10.8450414,13.639863 L9.81529531,11.2222175 Z M25.0314853,11.4513857 L25.0314853,12.5564741 L28.3258204,12.5564741 L28.3258204,13.7881873 L25.0314853,13.7881873 L25.0314853,14.9946284 L28.7265584,14.9946284 L30.4435122,13.2176483 L28.7994077,11.4503272 L25.0314853,11.4503272 L25.0314853,11.4513857 Z" id="logo-american-express-Shape" fill="#FFFFFF" fill-rule="nonzero"></path> </g> </g> </g> </g> </svg>