<?xml version="1.0" encoding="utf-8"?>
<svg xmlns="http://www.w3.org/2000/svg" xmlns:xlink="http://www.w3.org/1999/xlink" viewBox="0 0 42 26" id="icon-logo-afterpay">  <g id="logo-afterpay-Symbols" stroke="none" stroke-width="1" fill="none" fill-rule="evenodd"> <g id="logo-afterpay-footer-copy-2" transform="translate(-406.000000, -406.000000)"> <g id="logo-afterpay-Group-12" transform="translate(266.000000, 406.000000)"> <g id="logo-afterpay-Group-8-Copy" transform="translate(140.000000, 0.000000)"> <rect id="logo-afterpay-Rectangle-Copy-5" stroke="#E5E5E5" fill="#FFFFFF" x="0.5" y="0.5" width="40.6563392" height="24.3057325" rx="2"></rect> <g id="logo-afterpay-Group" transform="translate(9.000000, 6.000000)" fill-rule="nonzero"> <path d="M12.2728605,5.75576944 C13.1046512,5.27433029 13.8866718,4.82149919 14.7229686,4.3375127 C14.4521714,3.86234378 14.5182052,3.97658026 14.2715092,3.52825594 C14.0101174,3.05328297 14.1086782,2.86654648 14.6485096,2.86262756 C16.2203876,2.85165459 17.7926581,2.85028297 19.3645362,2.8585127 C19.8314756,2.86105999 19.9441446,3.06092486 19.7099889,3.47280324 C18.9324759,4.84011405 18.1463403,6.2025262 17.3531513,7.56082352 C17.0997931,7.99445189 16.8781783,7.99347217 16.6134551,7.56924921 C16.3414826,7.13326942 16.4139827,7.24103974 16.1230028,6.74686404 C15.3029688,7.22301269 14.4835232,7.69896538 13.6807323,8.16512082 C13.7289353,8.29091811 13.7904622,8.37164782 13.8408201,8.45923569 C14.4457051,9.51205323 14.7159146,10.0148505 15.3409822,11.0557154 C16.0816579,12.2891951 17.634334,12.3634587 18.5160908,11.2234451 C18.6140633,11.0966681 18.7038065,10.9620532 18.7839483,10.8233235 C20.2674551,8.25368834 21.7517461,5.6846411 23.2264352,3.10991135 C23.3759416,2.84930324 23.5107528,2.56459378 23.5756106,2.27380999 C23.8340633,1.11478973 22.9742529,0.0190599966 21.7658542,0.0125937804 C18.5868272,-0.00425757309 15.4072119,-0.00680486822 12.2281848,0.0212153977 C10.7801448,0.0339518864 9.90994829,1.48375594 10.5459892,2.75799243 C10.7532999,3.17281 11.0019554,3.56705324 11.2349351,3.96893837 C11.6732659,4.72548564 11.7890705,4.92456674 12.2728605,5.75576944" id="logo-afterpay-Fill-16" fill="#306E9A"></path> <path d="M5.20430657,13.6945195 C5.20567846,12.7408505 5.2082257,10.8740735 5.2082257,10.8740735 C5.2082257,10.8740735 4.8173137,10.8699586 4.28904321,10.8699586 C3.75117143,10.8699586 3.64026613,10.6798911 3.90577294,10.2149113 C4.67936754,8.8607289 5.46158397,7.51124918 6.25183392,6.16666812 C6.48657727,5.76733024 6.69447565,5.73225593 6.95096884,6.17626942 C7.7312257,7.52770864 8.51402981,8.87777623 9.28409705,10.2350938 C9.53000948,10.6683303 9.4187124,10.8580059 8.92277316,10.8738776 C8.41076624,10.8738776 7.97302311,10.8732897 7.97302311,10.8732897 L7.97282721,13.7021613 C7.97282721,13.7021613 10.060043,13.7025532 11.2801985,13.7025532 C12.7072728,13.6813911 13.5445498,12.3863843 13.0056986,11.0619857 C12.9459353,10.9148303 12.8751989,10.77081 12.7960365,10.6328641 C11.3305569,8.0798843 9.86566505,5.52651269 8.39156365,2.97843162 C8.24225251,2.72056675 8.06531348,2.46289783 7.84820559,2.26244513 C6.98251586,1.46318161 5.61402938,1.6550127 5.00659716,2.68843162 C3.40826592,5.40757349 1.82208386,8.13435729 0.262157808,10.8756411 C-0.448342084,12.1244046 0.361894673,13.5934114 1.77211781,13.6823708 C2.231219,13.7113708 4.19165835,13.6945195 5.20430657,13.6945195" id="logo-afterpay-Fill-18" fill="#1F4066"></path> </g> </g> </g> </g> </g> </svg>