<?xml version="1.0" encoding="UTF-8" standalone="no"?>
<svg xmlns="http://www.w3.org/2000/svg" xmlns:xlink="http://www.w3.org/1999/xlink" viewBox="0 0 51 49" id="icon-youtube"> <g fill="none" fill-rule="evenodd" transform="translate(.952)"> <g fill-rule="nonzero" transform="translate(13.624 16.756)"> <path fill="#FFF" d="M22.3668655,2.49848719 C22.1035045,1.52163506 21.3322333,0.75142472 20.3540357,0.488426068 C18.5669438,0 11.4185764,0 11.4185764,0 C11.4185764,0 4.27020896,0 2.48311711,0.46964045 C1.52373095,0.732639102 0.733648236,1.52163506 0.470287331,2.49848719 C0,4.2831209 0,7.98388765 0,7.98388765 C0,7.98388765 0,11.70344 0.470287331,13.4692881 C0.733648236,14.4461402 1.50491946,15.2163506 2.48311711,15.4793492 C4.28902046,15.9677753 11.4185764,15.9677753 11.4185764,15.9677753 C11.4185764,15.9677753 18.5669438,15.9677753 20.3540357,15.4981348 C21.3322333,15.2351362 22.1035045,14.4649259 22.3668655,13.4880737 C22.8372488,11.70344 22.8372488,8.00267327 22.8372488,8.00267327 C22.8372488,8.00267327 22.8559643,4.2831209 22.3668655,2.49848719 Z"></path> <polygon fill="#192F6E" points="9.516 11.271 15.225 7.984 9.516 4.696"></polygon> </g> <ellipse cx="24.523" cy="24.5" stroke="#FFF" opacity=".197" rx="24.023" ry="24"></ellipse> </g> </svg>